<svg width="562" height="492" viewBox="0 0 562 492" fill="none" xmlns="http://www.w3.org/2000/svg">
<mask id="path-1-inside-1_2301_2397" fill="white">
<path d="M255.353 54.4339L109.97 146.853L318.701 219.357L450.727 125.667L255.353 54.4339ZM317.54 211.172L189.038 166.535L261.746 120.359L385.524 162.928L317.54 211.172ZM260.84 112.313L180.261 163.476L126.708 144.872L256.288 62.505L435.169 127.727L392.907 157.718L260.84 112.313Z"/>
<path d="M241.17 0.359863L0.938476 152.475L148.943 325.376L287.328 491.639L427.912 292.847L561.09 111.973L241.17 0.359863ZM148.943 325.376L8.06008 159.609L333.058 272.915L287.163 490.466L148.943 325.376ZM336.113 266.238L12.9316 153.547L242.094 8.42959L549.406 115.665L336.113 266.238ZM427.912 292.847L287.163 490.466L340.319 272.224L553.435 121.713L427.912 292.847Z"/>
<path d="M287.163 490.466L148.943 325.376L8.06008 159.609L333.056 272.926L287.163 490.466Z"/>
<path d="M553.484 121.74L427.912 292.847L287.163 490.466L340.37 272.231L553.484 121.74Z"/>
<path d="M435.121 127.763L392.86 157.754L260.793 112.349L180.214 163.512L126.661 144.908L256.24 62.541L435.121 127.763Z"/>
<path fill-rule="evenodd" clip-rule="evenodd" d="M148.943 325.376L7.5379 159.606L8.06008 159.609L8.40354 158.622L334.102 272.172L287.163 490.466L148.943 325.376ZM287.163 490.466L148.943 325.376L8.57384 160.896L332.012 273.669L287.163 490.466ZM333.056 272.926L287.163 490.466L333.058 272.926L333.058 272.922L333.058 272.915L8.58109 159.791L333.054 272.925L333.056 272.926ZM317.705 212.336L186.651 166.813L261.611 119.207L387.79 162.601L317.705 212.336ZM260.705 111.161L392.74 156.555L432.89 128.063L256.366 63.6996L129.1 144.596L180.128 162.323L260.705 111.161ZM433.976 127.292L256.288 62.505L126.708 144.872L126.714 144.874L256.24 62.541L433.926 127.328L433.928 127.328L435.119 127.762L435.123 127.76L435.169 127.727L433.978 127.293L433.976 127.292ZM437.348 127.462L437.398 127.427L256.162 61.3464L124.323 145.15L124.329 145.152L124.275 145.186L180.348 164.666L260.929 113.501L393.027 158.917L437.35 127.463L437.348 127.462ZM336.276 267.402L10.5441 153.822L241.962 7.27615L551.669 115.347L336.276 267.402ZM427.912 292.847L554.542 119.714L554.493 119.748L554.493 119.686L339.275 271.682L287.163 490.466L427.912 292.847ZM340.319 272.224L287.163 490.466L340.37 272.231L340.38 272.224L553.435 121.775L553.435 121.713L340.319 272.224ZM341.415 272.773L287.163 490.466L427.912 292.847L552.377 123.801L341.415 272.773ZM109.97 146.853L318.701 219.357L450.727 125.667L255.353 54.4339L109.97 146.853ZM112.356 146.575L255.479 55.5925L448.498 125.967L318.536 218.192L112.356 146.575ZM261.746 120.359L385.524 162.928L317.54 211.172L189.038 166.535L261.746 120.359ZM0.938476 152.475L148.943 325.376L287.328 491.639L427.912 292.847L561.09 111.973L241.17 0.359863L0.938476 152.475ZM241.302 1.51327L560.039 112.714L427.912 292.847L287.163 490.466L148.943 325.376L1.9785 153.053L241.302 1.51327ZM242.094 8.42959L549.406 115.665L336.113 266.238L12.9316 153.547L242.094 8.42959Z"/>
<path d="M242.094 8.42959L12.9316 153.547L336.175 266.245L549.457 115.671L242.094 8.42959ZM318.701 219.357L109.97 146.853L255.353 54.4339L450.727 125.667L318.701 219.357Z"/>
<path fill-rule="evenodd" clip-rule="evenodd" d="M318.866 220.521L107.584 147.131L255.227 53.2752L452.956 125.367L318.866 220.521ZM12.9316 153.547L336.175 266.245L549.457 115.671L242.094 8.42959L12.9316 153.547ZM15.3185 153.272L242.226 9.5829L547.195 115.989L336.011 265.081L15.3185 153.272ZM318.701 219.357L109.97 146.853L255.353 54.4339L450.727 125.667L318.701 219.357Z"/>
</mask>
<path d="M255.353 54.4339L109.97 146.853L318.701 219.357L450.727 125.667L255.353 54.4339ZM317.54 211.172L189.038 166.535L261.746 120.359L385.524 162.928L317.54 211.172ZM260.84 112.313L180.261 163.476L126.708 144.872L256.288 62.505L435.169 127.727L392.907 157.718L260.84 112.313Z" fill="#5947D2"/>
<path d="M241.17 0.359863L0.938476 152.475L148.943 325.376L287.328 491.639L427.912 292.847L561.09 111.973L241.17 0.359863ZM148.943 325.376L8.06008 159.609L333.058 272.915L287.163 490.466L148.943 325.376ZM336.113 266.238L12.9316 153.547L242.094 8.42959L549.406 115.665L336.113 266.238ZM427.912 292.847L287.163 490.466L340.319 272.224L553.435 121.713L427.912 292.847Z" fill="#5947D2"/>
<path d="M287.163 490.466L148.943 325.376L8.06008 159.609L333.056 272.926L287.163 490.466Z" fill="#5947D2"/>
<path d="M553.484 121.74L427.912 292.847L287.163 490.466L340.37 272.231L553.484 121.74Z" fill="#5947D2"/>
<path d="M435.121 127.763L392.86 157.754L260.793 112.349L180.214 163.512L126.661 144.908L256.24 62.541L435.121 127.763Z" fill="#5947D2"/>
<path fill-rule="evenodd" clip-rule="evenodd" d="M148.943 325.376L7.5379 159.606L8.06008 159.609L8.40354 158.622L334.102 272.172L287.163 490.466L148.943 325.376ZM287.163 490.466L148.943 325.376L8.57384 160.896L332.012 273.669L287.163 490.466ZM333.056 272.926L287.163 490.466L333.058 272.926L333.058 272.922L333.058 272.915L8.58109 159.791L333.054 272.925L333.056 272.926ZM317.705 212.336L186.651 166.813L261.611 119.207L387.79 162.601L317.705 212.336ZM260.705 111.161L392.74 156.555L432.89 128.063L256.366 63.6996L129.1 144.596L180.128 162.323L260.705 111.161ZM433.976 127.292L256.288 62.505L126.708 144.872L126.714 144.874L256.24 62.541L433.926 127.328L433.928 127.328L435.119 127.762L435.123 127.76L435.169 127.727L433.978 127.293L433.976 127.292ZM437.348 127.462L437.398 127.427L256.162 61.3464L124.323 145.15L124.329 145.152L124.275 145.186L180.348 164.666L260.929 113.501L393.027 158.917L437.35 127.463L437.348 127.462ZM336.276 267.402L10.5441 153.822L241.962 7.27615L551.669 115.347L336.276 267.402ZM427.912 292.847L554.542 119.714L554.493 119.748L554.493 119.686L339.275 271.682L287.163 490.466L427.912 292.847ZM340.319 272.224L287.163 490.466L340.37 272.231L340.38 272.224L553.435 121.775L553.435 121.713L340.319 272.224ZM341.415 272.773L287.163 490.466L427.912 292.847L552.377 123.801L341.415 272.773ZM109.97 146.853L318.701 219.357L450.727 125.667L255.353 54.4339L109.97 146.853ZM112.356 146.575L255.479 55.5925L448.498 125.967L318.536 218.192L112.356 146.575ZM261.746 120.359L385.524 162.928L317.54 211.172L189.038 166.535L261.746 120.359ZM0.938476 152.475L148.943 325.376L287.328 491.639L427.912 292.847L561.09 111.973L241.17 0.359863L0.938476 152.475ZM241.302 1.51327L560.039 112.714L427.912 292.847L287.163 490.466L148.943 325.376L1.9785 153.053L241.302 1.51327ZM242.094 8.42959L549.406 115.665L336.113 266.238L12.9316 153.547L242.094 8.42959Z" fill="#5947D2"/>
<path d="M242.094 8.42959L12.9316 153.547L336.175 266.245L549.457 115.671L242.094 8.42959ZM318.701 219.357L109.97 146.853L255.353 54.4339L450.727 125.667L318.701 219.357Z" fill="#C8BFFF"/>
<path fill-rule="evenodd" clip-rule="evenodd" d="M318.866 220.521L107.584 147.131L255.227 53.2752L452.956 125.367L318.866 220.521ZM12.9316 153.547L336.175 266.245L549.457 115.671L242.094 8.42959L12.9316 153.547ZM15.3185 153.272L242.226 9.5829L547.195 115.989L336.011 265.081L15.3185 153.272ZM318.701 219.357L109.97 146.853L255.353 54.4339L450.727 125.667L318.701 219.357Z" fill="#C8BFFF"/>
<path d="M255.353 54.4339L255.525 53.9641L255.293 53.8797L255.085 54.0119L255.353 54.4339ZM109.97 146.853L109.702 146.431L108.829 146.986L109.806 147.325L109.97 146.853ZM318.701 219.357L318.537 219.829L318.781 219.913L318.991 219.764L318.701 219.357ZM450.727 125.667L451.017 126.075L451.793 125.524L450.898 125.197L450.727 125.667ZM317.54 211.172L317.376 211.644L317.619 211.728L317.829 211.579L317.54 211.172ZM189.038 166.535L188.77 166.113L187.896 166.668L188.874 167.007L189.038 166.535ZM261.746 120.359L261.909 119.887L261.681 119.808L261.478 119.937L261.746 120.359ZM385.524 162.928L385.813 163.335L386.608 162.772L385.687 162.455L385.524 162.928ZM241.17 0.359863L241.335 -0.11223L241.107 -0.191807L240.903 -0.0625716L241.17 0.359863ZM0.938476 152.475L0.670991 152.052L0.183132 152.361L0.558634 152.8L0.938476 152.475ZM148.943 325.376L149.326 325.055L149.324 325.052L148.943 325.376ZM287.328 491.639L286.944 491.959L287.36 492.46L287.736 491.928L287.328 491.639ZM427.912 292.847L427.509 292.55L427.505 292.557L427.912 292.847ZM561.09 111.973L561.492 112.27L561.894 111.724L561.254 111.501L561.09 111.973ZM287.163 490.466L286.781 490.789L287.194 491.277L287.568 490.759L287.163 490.466ZM336.113 266.238L335.949 266.71L336.191 266.794L336.402 266.646L336.113 266.238ZM12.9316 153.547L12.6641 153.124L11.7897 153.678L12.767 154.019L12.9316 153.547ZM242.094 8.42959L242.259 7.9575L242.031 7.87791L241.827 8.00716L242.094 8.42959ZM549.406 115.665L549.695 116.073L550.488 115.513L549.571 115.193L549.406 115.665ZM340.319 272.224L340.03 271.816L339.877 271.924L339.833 272.106L340.319 272.224ZM336.175 266.245L336.01 266.718L336.253 266.802L336.463 266.654L336.175 266.245ZM549.457 115.671L549.746 116.08L550.54 115.519L549.622 115.199L549.457 115.671ZM255.085 54.0119L109.702 146.431L110.238 147.275L255.622 54.8558L255.085 54.0119ZM109.806 147.325L318.537 219.829L318.865 218.884L110.134 146.38L109.806 147.325ZM318.991 219.764L451.017 126.075L450.438 125.259L318.412 218.949L318.991 219.764ZM450.898 125.197L255.525 53.9641L255.182 54.9036L450.556 126.137L450.898 125.197ZM317.704 210.699L189.202 166.063L188.874 167.007L317.376 211.644L317.704 210.699ZM189.306 166.957L262.014 120.781L261.478 119.937L188.77 166.113L189.306 166.957ZM261.584 120.832L385.361 163.4L385.687 162.455L261.909 119.887L261.584 120.832ZM385.235 162.52L317.25 210.764L317.829 211.579L385.813 163.335L385.235 162.52ZM126.976 145.294L256.556 62.9269L256.02 62.083L126.44 144.45L126.976 145.294ZM240.903 -0.0625716L0.670991 152.052L1.20596 152.897L241.438 0.782298L240.903 -0.0625716ZM0.558634 152.8L148.563 325.701L149.323 325.051L1.31832 152.149L0.558634 152.8ZM148.558 325.696L286.944 491.959L287.712 491.319L149.327 325.056L148.558 325.696ZM287.736 491.928L428.32 293.135L427.504 292.558L286.92 491.351L287.736 491.928ZM428.315 293.143L561.492 112.27L560.687 111.677L427.509 292.55L428.315 293.143ZM561.254 111.501L241.335 -0.11223L241.006 0.831957L560.925 112.445L561.254 111.501ZM149.324 325.052L8.44107 159.286L7.67909 159.933L148.562 325.7L149.324 325.052ZM287.547 490.145L149.326 325.055L148.559 325.697L286.78 490.787L287.547 490.145ZM336.278 265.765L13.0962 153.075L12.767 154.019L335.949 266.71L336.278 265.765ZM13.1991 153.969L242.362 8.85201L241.827 8.00716L12.6641 153.124L13.1991 153.969ZM241.929 8.90167L549.241 116.137L549.571 115.193L242.259 7.9575L241.929 8.90167ZM549.118 115.256L335.825 265.829L336.402 266.646L549.695 116.073L549.118 115.256ZM427.505 292.557L286.756 490.176L287.57 490.756L428.319 293.137L427.505 292.557ZM287.649 490.585L340.805 272.342L339.833 272.106L286.677 490.348L287.649 490.585ZM340.607 272.632L553.724 122.121L553.147 121.304L340.03 271.816L340.607 272.632ZM332.567 272.823L286.674 490.363L287.652 490.569L333.545 273.029L332.567 272.823ZM287.649 490.585L340.856 272.349L339.885 272.112L286.677 490.348L287.649 490.585ZM12.767 154.019L336.01 266.718L336.339 265.773L13.0962 153.075L12.767 154.019ZM336.463 266.654L549.746 116.08L549.169 115.263L335.886 265.837L336.463 266.654ZM549.622 115.199L242.259 7.9575L241.929 8.90167L549.293 116.143L549.622 115.199ZM8.19199 161.218L286.781 490.789L287.545 490.144L8.95569 160.573L8.19199 161.218ZM287.568 490.759L552.782 124.094L551.972 123.508L286.758 490.173L287.568 490.759ZM260.84 112.313L261.165 111.367L260.71 111.211L260.304 111.469L260.84 112.313ZM180.261 163.476L179.933 164.421L180.39 164.58L180.797 164.321L180.261 163.476ZM126.708 144.872L127.036 143.927L126.379 145.816L126.708 144.872ZM435.169 127.727L435.748 128.543L437.301 127.44L435.511 126.788L435.169 127.727ZM392.907 157.718L392.582 158.664L393.068 158.831L393.486 158.534L392.907 157.718ZM148.943 325.376L148.182 326.025L149.704 324.727L148.943 325.376ZM427.912 292.847L427.105 292.256L428.717 293.44L427.912 292.847ZM333.058 272.915L334.058 272.92L334.061 272.206L333.387 271.971L333.058 272.915ZM287.163 490.466L286.184 490.264L288.134 490.708L287.163 490.466ZM553.435 121.713L554.435 121.72L554.458 118.628L552.629 121.121L553.435 121.713ZM333.056 272.926L332.731 273.871L333.385 271.982L333.056 272.926ZM553.484 121.74L554.291 122.332L552.908 120.923L553.484 121.74ZM340.37 272.231L339.794 271.414L340.946 273.048L340.37 272.231ZM435.121 127.763L435.7 128.579L437.254 127.476L435.464 126.824L435.121 127.763ZM392.86 157.754L392.535 158.7L393.02 158.867L393.439 158.57L392.86 157.754ZM260.793 112.349L261.118 111.403L260.663 111.247L260.257 111.505L260.793 112.349ZM180.214 163.512L179.886 164.457L180.342 164.616L180.75 164.357L180.214 163.512ZM126.661 144.908L126.125 144.064L124.379 145.174L126.333 145.853L126.661 144.908ZM256.24 62.541L256.583 61.6015L256.12 61.4327L255.704 61.6971L256.24 62.541ZM7.5379 159.606L7.54447 158.606L5.35825 158.592L6.77709 160.255L7.5379 159.606ZM8.40354 158.622L8.73274 157.678L7.78781 157.348L7.45904 158.293L8.40354 158.622ZM334.102 272.172L335.08 272.383L335.266 271.519L334.431 271.228L334.102 272.172ZM8.57384 160.896L8.90307 159.951L5.41565 158.735L7.81318 161.545L8.57384 160.896ZM332.012 273.669L332.991 273.871L333.168 273.013L332.341 272.724L332.012 273.669ZM333.058 272.926L334.036 273.132L334.058 273.026L334.058 272.918L333.058 272.926ZM333.058 272.922L332.057 272.917L332.058 272.93L333.058 272.922ZM8.58109 159.791L8.91029 158.847L8.25186 160.735L8.58109 159.791ZM333.054 272.925L332.725 273.869L332.729 273.871L333.054 272.925ZM317.705 212.336L317.377 213.28L317.864 213.45L318.284 213.151L317.705 212.336ZM186.651 166.813L186.115 165.968L184.368 167.078L186.323 167.757L186.651 166.813ZM261.611 119.207L261.936 118.262L261.481 118.105L261.075 118.363L261.611 119.207ZM387.79 162.601L388.369 163.417L389.958 162.289L388.115 161.656L387.79 162.601ZM260.705 111.161L261.03 110.215L260.575 110.059L260.169 110.317L260.705 111.161ZM392.74 156.555L392.415 157.501L392.9 157.668L393.319 157.371L392.74 156.555ZM432.89 128.063L433.469 128.878L435.023 127.776L433.233 127.123L432.89 128.063ZM256.366 63.6996L256.709 62.7601L256.246 62.5913L255.83 62.8557L256.366 63.6996ZM129.1 144.596L128.564 143.752L126.818 144.862L128.772 145.541L129.1 144.596ZM180.128 162.323L179.799 163.268L180.256 163.426L180.664 163.167L180.128 162.323ZM433.976 127.292L434.321 126.354L434.318 126.353L433.976 127.292ZM126.714 144.874L126.385 145.818L126.842 145.978L127.251 145.718L126.714 144.874ZM433.926 127.328L434.272 126.389L434.269 126.388L433.926 127.328ZM433.928 127.328L433.583 128.267L433.586 128.268L433.928 127.328ZM435.119 127.762L434.777 128.702L435.272 128.883L435.701 128.576L435.119 127.762ZM435.123 127.76L434.544 126.944L434.54 126.947L435.123 127.76ZM433.978 127.293L433.632 128.232L433.635 128.233L433.978 127.293ZM437.348 127.462L436.769 126.647L435.213 127.751L437.007 128.402L437.348 127.462ZM437.398 127.427L437.976 128.243L439.53 127.14L437.74 126.488L437.398 127.427ZM256.162 61.3464L256.505 60.4069L256.042 60.238L255.626 60.5024L256.162 61.3464ZM124.323 145.15L123.786 144.306L122.042 145.414L123.993 146.094L124.323 145.15ZM124.329 145.152L124.865 145.996L126.609 144.888L124.658 144.208L124.329 145.152ZM124.275 145.186L123.739 144.342L121.993 145.452L123.947 146.131L124.275 145.186ZM180.348 164.666L180.02 165.61L180.476 165.769L180.884 165.51L180.348 164.666ZM260.929 113.501L261.254 112.556L260.799 112.399L260.393 112.657L260.929 113.501ZM393.027 158.917L392.702 159.863L393.188 160.03L393.606 159.733L393.027 158.917ZM437.35 127.463L437.929 128.279L439.485 127.174L437.692 126.523L437.35 127.463ZM336.276 267.402L335.947 268.346L336.433 268.515L336.853 268.219L336.276 267.402ZM10.5441 153.822L10.0091 152.977L8.26019 154.084L10.2149 154.766L10.5441 153.822ZM241.962 7.27615L242.291 6.33198L241.835 6.17278L241.427 6.4313L241.962 7.27615ZM551.669 115.347L552.245 116.164L553.833 115.043L551.998 114.403L551.669 115.347ZM554.542 119.714L555.349 120.304L553.966 118.896L554.542 119.714ZM554.493 119.748L553.493 119.741L553.479 121.688L555.069 120.565L554.493 119.748ZM554.493 119.686L555.493 119.693L555.507 117.746L553.916 118.869L554.493 119.686ZM339.275 271.682L338.698 270.865L338.389 271.083L338.302 271.45L339.275 271.682ZM340.38 272.224L340.956 273.042L340.957 273.041L340.38 272.224ZM553.435 121.775L554.012 122.592L554.431 122.295L554.435 121.782L553.435 121.775ZM341.415 272.773L340.838 271.956L340.534 272.17L340.444 272.531L341.415 272.773ZM552.377 123.801L553.183 124.394L551.8 122.984L552.377 123.801ZM112.356 146.575L111.819 145.731L110.074 146.841L112.028 147.519L112.356 146.575ZM255.479 55.5925L255.822 54.653L255.359 54.4842L254.943 54.7486L255.479 55.5925ZM448.498 125.967L449.077 126.783L450.631 125.68L448.841 125.028L448.498 125.967ZM318.536 218.192L318.208 219.137L318.695 219.306L319.115 219.008L318.536 218.192ZM241.302 1.51327L241.632 0.569081L241.176 0.409929L240.768 0.668399L241.302 1.51327ZM560.039 112.714L560.846 113.306L561.646 112.215L560.369 111.77L560.039 112.714ZM1.9785 153.053L1.44353 152.208L0.469615 152.825L1.21763 153.702L1.9785 153.053ZM318.866 220.521L318.538 221.465L319.025 221.634L319.445 221.336L318.866 220.521ZM107.584 147.131L107.048 146.287L105.302 147.397L107.256 148.075L107.584 147.131ZM255.227 53.2752L255.57 52.3357L255.107 52.1669L254.691 52.4313L255.227 53.2752ZM452.956 125.367L453.534 126.183L455.088 125.08L453.298 124.428L452.956 125.367ZM15.3185 153.272L14.7835 152.427L13.0344 153.535L14.9892 154.216L15.3185 153.272ZM242.226 9.5829L242.555 8.63872L242.099 8.47955L241.691 8.73805L242.226 9.5829ZM547.195 115.989L547.772 116.806L549.359 115.685L547.524 115.045L547.195 115.989ZM336.011 265.081L335.682 266.026L336.168 266.195L336.588 265.898L336.011 265.081ZM260.304 111.469L179.725 162.632L180.797 164.321L261.376 113.157L260.304 111.469ZM180.59 162.532L127.036 143.927L126.38 145.817L179.933 164.421L180.59 162.532ZM255.945 63.4445L434.826 128.667L435.511 126.788L256.63 61.5655L255.945 63.4445ZM434.59 126.912L392.329 156.903L393.486 158.534L435.748 128.543L434.59 126.912ZM393.232 156.773L261.165 111.367L260.515 113.259L392.582 158.664L393.232 156.773ZM7.73087 160.554L332.728 273.86L333.387 271.971L8.38928 158.665L7.73087 160.554ZM332.079 272.709L286.185 490.26L288.142 490.673L334.036 273.122L332.079 272.709ZM552.629 121.121L427.106 292.255L428.718 293.438L554.242 122.304L552.629 121.121ZM7.73085 160.554L332.727 273.87L333.385 271.982L8.38931 158.665L7.73085 160.554ZM552.678 121.148L427.106 292.255L428.718 293.438L554.291 122.332L552.678 121.148ZM340.947 273.048L554.061 122.557L552.908 120.923L339.794 271.414L340.947 273.048ZM434.543 126.948L392.281 156.939L393.439 158.57L435.7 128.579L434.543 126.948ZM393.185 156.809L261.118 111.403L260.468 113.295L392.535 158.7L393.185 156.809ZM260.257 111.505L179.678 162.668L180.75 164.357L261.329 113.193L260.257 111.505ZM180.542 162.568L126.989 143.963L126.333 145.853L179.886 164.457L180.542 162.568ZM127.197 145.752L256.777 63.3849L255.704 61.6971L126.125 144.064L127.197 145.752ZM255.898 63.4805L434.779 128.703L435.464 126.824L256.583 61.6015L255.898 63.4805ZM8.06665 158.609L7.54447 158.606L7.53133 160.606L8.05351 160.609L8.06665 158.609ZM7.45904 158.293L7.11558 159.281L9.00457 159.938L9.34803 158.95L7.45904 158.293ZM149.703 324.727L9.3345 160.247L7.81318 161.545L148.182 326.025L149.703 324.727ZM8.24461 161.84L331.682 274.613L332.341 272.724L8.90307 159.951L8.24461 161.84ZM331.032 273.466L286.184 490.264L288.142 490.669L332.991 273.871L331.032 273.466ZM332.079 272.719L286.185 490.26L288.142 490.673L334.036 273.132L332.079 272.719ZM332.058 272.93L332.058 272.934L334.058 272.918L334.058 272.914L332.058 272.93ZM332.058 272.911L332.058 272.917L334.058 272.927L334.058 272.92L332.058 272.911ZM8.25188 160.735L332.728 273.86L333.387 271.971L8.91029 158.847L8.25188 160.735ZM333.382 271.98L333.38 271.98L332.729 273.871L332.731 273.871L333.382 271.98ZM432.312 127.247L392.161 155.74L393.319 157.371L433.469 128.878L432.312 127.247ZM256.024 64.6391L432.548 129.002L433.233 127.123L256.709 62.7601L256.024 64.6391ZM129.637 145.44L256.903 64.5436L255.83 62.8557L128.564 143.752L129.637 145.44ZM180.456 161.379L129.428 143.652L128.772 145.541L179.799 163.268L180.456 161.379ZM255.945 63.4445L433.633 128.232L434.318 126.353L256.63 61.5655L255.945 63.4445ZM127.043 143.93L127.037 143.928L126.379 145.816L126.385 145.818L127.043 143.93ZM434.274 126.39L434.272 126.389L433.581 128.266L433.583 128.267L434.274 126.39ZM435.462 126.823L434.271 126.389L433.586 128.268L434.777 128.702L435.462 126.823ZM434.59 126.912L434.544 126.944L435.701 128.576L435.747 128.543L434.59 126.912ZM433.63 128.231L433.632 128.231L434.324 126.355L434.321 126.354L433.63 128.231ZM437.927 128.278L437.976 128.243L436.819 126.612L436.769 126.647L437.927 128.278ZM123.993 146.094L124 146.096L124.658 144.208L124.652 144.206L123.993 146.094ZM123.792 144.308L123.739 144.342L124.812 146.03L124.865 145.996L123.792 144.308ZM437.692 126.523L437.689 126.522L437.007 128.402L437.009 128.403L437.692 126.523ZM553.966 118.896L553.916 118.931L555.069 120.565L555.119 120.531L553.966 118.896ZM555.493 119.756L555.493 119.693L553.493 119.679L553.493 119.741L555.493 119.756ZM339.804 271.407L339.795 271.413L340.946 273.048L340.956 273.042L339.804 271.407ZM288.134 490.708L342.385 273.015L340.444 272.531L286.193 490.224L288.134 490.708ZM551.572 123.208L427.107 292.254L428.717 293.44L553.183 124.394L551.572 123.208ZM341.991 273.59L552.954 124.618L551.8 122.984L340.838 271.956L341.991 273.59ZM112.892 147.419L256.016 56.4364L254.943 54.7486L111.819 145.731L112.892 147.419ZM255.137 56.532L448.156 126.907L448.841 125.028L255.822 54.653L255.137 56.532ZM447.92 125.152L317.957 217.377L319.115 219.008L449.077 126.783L447.92 125.152ZM318.864 217.248L112.684 145.63L112.028 147.519L318.208 219.137L318.864 217.248ZM240.973 2.45746L559.71 113.658L560.369 111.77L241.632 0.569081L240.973 2.45746ZM559.233 112.123L427.106 292.255L428.718 293.438L560.846 113.306L559.233 112.123ZM149.704 324.727L2.73938 152.404L1.21763 153.702L148.182 326.025L149.704 324.727ZM2.51348 153.898L241.837 2.35814L240.768 0.668399L1.44353 152.208L2.51348 153.898ZM6.77709 160.255L148.182 326.025L149.704 324.727L8.2987 158.957L6.77709 160.255ZM334.431 271.228L8.73274 157.678L8.07433 159.566L333.773 273.117L334.431 271.228ZM288.141 490.677L335.08 272.383L333.125 271.962L286.186 490.256L288.141 490.677ZM333.383 271.981L8.91032 158.847L8.25186 160.735L332.725 273.869L333.383 271.981ZM186.323 167.757L317.377 213.28L318.033 211.391L186.979 165.868L186.323 167.757ZM261.075 118.363L186.115 165.968L187.187 167.657L262.147 120.051L261.075 118.363ZM388.115 161.656L261.936 118.262L261.286 120.153L387.465 163.547L388.115 161.656ZM318.284 213.151L388.369 163.417L387.211 161.786L317.126 211.52L318.284 213.151ZM393.065 155.61L261.03 110.215L260.38 112.107L392.415 157.501L393.065 155.61ZM260.169 110.317L179.592 161.479L180.664 163.167L261.241 112.005L260.169 110.317ZM255.704 61.6971L126.178 144.03L127.251 145.718L256.777 63.3849L255.704 61.6971ZM434.269 126.388L256.583 61.6015L255.898 63.4805L433.584 128.267L434.269 126.388ZM433.635 128.233L434.826 128.667L435.511 126.788L434.321 126.354L433.635 128.233ZM437.74 126.488L256.505 60.4069L255.819 62.2859L437.055 128.367L437.74 126.488ZM255.626 60.5024L123.786 144.306L124.859 145.994L256.698 62.1903L255.626 60.5024ZM123.947 146.131L180.02 165.61L180.676 163.721L124.603 144.241L123.947 146.131ZM180.884 165.51L261.465 114.345L260.393 112.657L179.812 163.821L180.884 165.51ZM260.603 114.447L392.702 159.863L393.352 157.972L261.254 112.556L260.603 114.447ZM393.606 159.733L437.929 128.279L436.772 126.648L392.449 158.102L393.606 159.733ZM10.2149 154.766L335.947 268.346L336.606 266.457L10.8734 152.877L10.2149 154.766ZM241.427 6.4313L10.0091 152.977L11.0791 154.666L242.497 8.121L241.427 6.4313ZM551.998 114.403L242.291 6.33198L241.632 8.22032L551.339 116.291L551.998 114.403ZM336.853 268.219L552.245 116.164L551.092 114.53L335.7 266.585L336.853 268.219ZM428.719 293.437L555.349 120.304L553.735 119.123L427.105 292.256L428.719 293.437ZM553.916 118.869L338.698 270.865L339.852 272.499L555.07 120.503L553.916 118.869ZM338.302 271.45L286.19 490.235L288.136 490.698L340.247 271.914L338.302 271.45ZM552.858 120.958L339.803 271.407L340.957 273.041L554.012 122.592L552.858 120.958ZM552.436 121.705L552.435 121.768L554.435 121.782L554.435 121.72L552.436 121.705ZM15.8535 154.117L242.761 10.4278L241.691 8.73805L14.7835 152.427L15.8535 154.117ZM241.896 10.5271L546.865 116.933L547.524 115.045L242.555 8.63872L241.896 10.5271ZM546.618 115.172L335.435 264.264L336.588 265.898L547.772 116.806L546.618 115.172ZM336.341 264.137L15.6477 152.328L14.9892 154.216L335.682 266.026L336.341 264.137ZM107.256 148.075L318.538 221.465L319.195 219.576L107.912 146.186L107.256 148.075ZM254.691 52.4313L107.048 146.287L108.121 147.975L255.764 54.1191L254.691 52.4313ZM453.298 124.428L255.57 52.3357L254.885 54.2147L452.613 126.307L453.298 124.428ZM319.445 221.336L453.534 126.183L452.377 124.552L318.288 219.705L319.445 221.336ZM434.54 126.947L434.537 126.949L435.701 128.576L435.705 128.573L434.54 126.947Z" fill="black" mask="url(#path-1-inside-1_2301_2397)"/>
</svg>
