<svg width="261" height="308" viewBox="0 0 261 308" fill="none" xmlns="http://www.w3.org/2000/svg">
<g clip-path="url(#clip0_139_56)">
<path d="M141.742 22.0914C142.086 21.5787 142.574 20.6313 143.325 21.1318C154.481 28.6702 165.626 36.2288 176.778 43.7719C177.156 43.9633 177.31 44.3594 177.36 44.7593C180.258 61.1888 183.176 77.6181 186.079 94.0464C186.25 94.8711 186.455 95.6964 186.398 96.5474C192.528 98.8148 198.682 101.013 204.828 103.23C206.338 103.722 207.531 104.811 208.861 105.639C219.328 112.728 229.859 119.721 240.284 126.872L240.176 127.273C236.672 130.555 233.373 134.057 229.95 137.425C211.93 155.47 193.952 173.564 175.905 191.582C175.776 191.567 175.522 191.54 175.395 191.526C172.603 189.866 169.942 187.99 167.185 186.274C166.23 189.513 165.31 192.763 164.404 196.014C163.979 197.04 162.866 197.369 161.92 197.72C158.819 198.977 155.721 200.234 152.623 201.493C151.954 201.747 151.291 202.157 150.548 202.039C151.455 202.431 152.235 203.047 153.054 203.595C155.433 205.206 157.806 206.827 160.19 208.428C160.477 208.647 160.839 208.811 161.03 209.136C160.93 209.696 160.521 210.138 160.245 210.626C144.739 235.126 129.244 259.638 113.745 284.143C113.353 284.73 113.051 285.402 112.505 285.869L112.04 285.745C101.011 278.176 89.9308 270.679 78.8844 263.132C78.2458 262.603 77.4534 262.173 77.0311 261.443C73.6671 245.293 70.3904 229.119 66.9958 212.975C66.5398 212.891 66.0814 212.794 65.6516 212.612C62.0497 211.15 58.4408 209.703 54.8277 208.261C53.4743 207.727 52.3371 206.797 51.1218 206.018C44.8805 201.797 38.6336 197.585 32.3881 193.368C28.0838 190.436 23.6573 187.657 19.6601 184.304C23.3233 180.818 26.7969 177.141 30.364 173.56C42.5483 161.197 54.7334 148.833 66.9212 136.468C71.1432 132.271 75.193 127.895 79.516 123.798C79.8641 123.516 80.3573 122.898 80.8291 123.324C83.0012 124.775 85.1614 126.249 87.3271 127.713C88.0706 124.819 88.8728 121.944 89.5594 119.036C92.8939 117.458 96.3157 116.064 99.6901 114.576C97.6209 113.379 95.7154 111.918 93.6876 110.654C93.3422 110.384 92.7754 110.226 92.7839 109.697C93.0093 109.007 93.344 108.364 93.6604 107.714C109.686 79.1754 125.737 50.6409 141.742 22.0914ZM143.745 22.346C143.741 22.5019 143.733 22.8136 143.731 22.9702C147.194 42.9753 150.731 62.9714 154.132 82.9864C156.43 84.5962 158.766 86.161 161.116 87.6947C161.431 86.6832 162.57 86.8808 163.321 87.2043C170.707 89.7966 178.029 92.5723 185.412 95.1612C185.214 92.6867 184.573 90.2622 184.216 87.8062C181.684 73.5297 179.153 59.2505 176.633 44.9715C176.602 44.5794 176.325 44.293 175.993 44.1228C165.225 36.8917 154.534 29.542 143.745 22.346ZM141.919 23.3391C137.514 31.0652 133.2 38.8392 128.834 46.5843C117.355 67.0508 105.82 87.4878 94.379 107.976C94.8297 108.091 95.2118 107.769 95.6093 107.617C114.505 99.2591 133.441 90.9879 152.32 82.5966C148.943 62.9777 145.507 43.3694 142.103 23.7547C142.058 23.6525 141.966 23.4447 141.919 23.3391ZM152.922 84.2551C137.467 91.0726 122.005 97.8736 106.548 104.688C102.486 106.523 98.3482 108.208 94.3333 110.138C96.0761 111.384 97.8626 112.575 99.675 113.723C116.711 106.289 133.739 98.8288 150.751 91.3414C150.863 91.3569 151.085 91.3816 151.195 91.3936C153.798 92.928 156.369 94.5239 158.97 96.0638C159.747 93.8128 160.202 91.4552 160.797 89.1468C158.331 87.4921 155.875 85.8225 153.406 84.1724C153.287 84.1929 153.044 84.2326 152.922 84.2551ZM162.634 88.6769C159.265 101.207 156.031 113.775 152.675 126.308C150.815 133.068 149.255 139.906 147.392 146.665C145.683 153.117 143.899 159.551 142.236 166.015C142.615 165.715 142.971 165.392 143.305 165.045C163.59 144.619 183.9 124.217 204.178 103.785C190.354 98.68 176.486 93.7083 162.634 88.6769ZM162.317 148.405C155.522 155.29 148.624 162.081 141.896 169.028C153.117 176.311 164.33 183.605 175.6 190.814C180.815 185.671 185.952 180.443 191.138 175.269C207.154 159.193 223.204 143.151 239.202 127.056C238.809 126.683 238.355 126.396 237.905 126.104C227.242 118.935 216.607 111.723 205.931 104.572C191.352 119.138 176.86 133.8 162.317 148.405ZM151.454 93.707C148.416 104.904 145.396 116.111 142.479 127.344C138.404 142.521 134.629 157.776 130.497 172.938C141.115 180.027 151.755 187.079 162.383 194.15C162.9 194.506 163.387 194.928 163.99 195.147C164.685 192.572 165.322 189.981 166.103 187.432C166.196 187.053 166.465 186.547 165.989 186.311C157.283 180.746 148.684 174.998 139.937 169.509C139.56 168.847 140.059 168.079 140.137 167.397C142.425 158.513 144.873 149.67 147.223 140.8C150.979 126.511 154.799 112.236 158.485 97.9279C156.711 96.8074 154.935 95.6861 153.166 94.5582C152.623 94.2266 152.111 93.7783 151.454 93.707ZM148.773 93.8751C129.279 102.43 109.771 110.961 90.2757 119.512C89.2687 122.394 88.6701 125.439 87.8962 128.403C85.7455 136.452 83.5874 144.495 81.4313 152.542C79.9002 158.721 78.2331 164.867 76.6337 171.031C74.5029 179.102 72.4886 187.204 70.2794 195.254C79.5199 191.844 88.6948 188.256 97.9106 184.775C108.296 180.806 118.702 176.888 129.071 172.882C132.021 161.847 134.842 150.781 137.771 139.741C139.646 132.788 141.336 125.787 143.246 118.843C145.466 110.436 147.815 102.06 149.928 93.6236C149.541 93.334 149.142 93.7647 148.773 93.8751ZM80.6127 124.164C73.8591 149.466 67.0629 174.754 60.2884 200.048C62.9626 201.898 65.6872 203.669 68.3677 205.506C68.7397 205.731 69.137 206.099 69.603 205.994C72.0208 205.078 74.4371 204.167 76.8658 203.286C76.9829 202.882 76.9918 202.448 76.5436 202.27C73.8616 200.394 71.0988 198.636 68.4447 196.722C70.6179 188.395 72.8372 180.08 75.007 171.755C78.6327 157.152 82.7057 142.666 86.4668 128.099C84.5604 126.728 82.619 125.379 80.6127 124.164ZM71.0467 133.368C62.1811 142.361 53.3174 151.357 44.451 160.353C36.6202 168.341 28.6997 176.253 20.9197 184.29C21.9972 184.901 23.215 185.184 24.3278 185.718C35.8194 190.207 47.2549 194.84 58.7616 199.284C65.2776 174.869 71.8639 150.472 78.3575 126.054C75.8255 128.381 73.4928 130.939 71.0467 133.368ZM71.8316 196.356C71.736 196.421 71.5448 196.55 71.4493 196.614C74.033 198.705 77.003 200.274 79.666 202.263C95.0927 196.493 110.527 190.74 125.953 184.973C126.434 184.832 126.955 185.076 127.359 185.329C134.942 190.498 142.552 195.63 150.135 200.798C150.484 200.979 150.848 201.437 151.283 201.199C154.903 199.782 158.476 198.245 162.103 196.854C162.498 196.157 161.476 195.913 161.087 195.567C150.564 188.512 140.018 181.492 129.532 174.386C110.293 181.695 91.0648 189.034 71.8316 196.356ZM126.836 186.698C112.479 209.454 98.1038 232.199 83.7417 254.951C82.227 257.443 80.5271 259.837 79.1329 262.399C90.1897 269.94 101.249 277.481 112.32 285C128.245 259.859 144.137 234.697 160.055 209.551L160.072 209.28C156.455 206.738 152.727 204.353 149.138 201.769C141.695 196.76 134.321 191.645 126.836 186.698ZM116.325 190.445C100.556 196.335 84.7837 202.225 69.0124 208.112C68.4296 208.328 67.8277 208.506 67.3012 208.848C70.7986 225.453 74.2934 242.057 77.7705 258.662C77.9334 259.223 77.8876 259.903 78.3059 260.355C91.9468 238.747 105.595 217.144 119.236 195.536C120.856 192.877 122.652 190.321 124.156 187.599C121.502 188.411 118.941 189.515 116.325 190.445ZM26.8116 188.592C35.6107 194.557 44.4133 200.52 53.2117 206.488C55.0022 207.881 57.2561 208.377 59.2836 209.307C61.5627 210.197 63.8134 211.149 66.0995 212.023C65.9341 210.822 65.8245 209.542 65.1555 208.5C65.145 207.186 66.5625 207.156 67.4823 206.83C67.0977 206.198 66.3658 205.92 65.7955 205.494C63.7046 204.184 61.7414 202.678 59.6365 201.387C58.4521 201.099 57.3804 200.51 56.2295 200.129C51.0771 198.056 45.8989 196.058 40.748 193.981C36.0839 192.24 31.5257 190.19 26.8116 188.592Z" fill="#5F45D7"/>
<path d="M144.891 24.1849C155.167 31.1329 165.433 38.0956 175.709 45.0409C178.401 60.3544 181.13 75.663 183.833 90.9767C183.983 91.9237 184.208 92.8589 184.296 93.8158C179.707 92.3389 175.227 90.5369 170.672 88.9618C167.847 87.978 165.097 86.7585 162.172 86.0796C161.563 85.8205 161.002 86.6932 160.444 86.1659C158.666 84.922 156.804 83.7865 155.064 82.4949C152.671 69.3892 150.492 56.2305 148.164 43.1076C147.085 36.7984 145.964 30.4953 144.891 24.1849Z" fill="#5F45D7"/>
<path d="M96.3267 110.181C115.282 101.883 134.195 93.4803 153.153 85.1829C155.445 86.5761 157.671 88.1405 159.88 89.6828C159.462 91.3614 158.997 93.0304 158.623 94.7179C156.411 93.5555 154.308 92.1838 152.18 90.8696C151.586 90.7162 150.951 90.3715 150.338 90.5243C136.624 96.5611 122.889 102.555 109.164 108.574C105.986 109.926 102.857 111.419 99.6427 112.688C98.5698 111.886 97.4427 111.157 96.3127 110.439C96.3159 110.373 96.3243 110.244 96.3267 110.181Z" fill="#5F45D7"/>
<path d="M206.032 105.718C216.632 112.854 227.205 120.036 237.834 127.125C217.076 147.986 196.241 168.777 175.512 189.662C164.763 182.789 154.048 175.848 143.371 168.859C149.676 162.331 156.156 155.963 162.537 149.502C177.027 134.897 191.559 120.336 206.032 105.718Z" fill="#5F45D7"/>
<path d="M151.923 94.9112C153.849 96.0055 155.683 97.2557 157.556 98.4378C153.486 114.146 149.312 129.823 145.096 145.492C143.283 152.375 141.49 159.263 139.634 166.134C139.386 167.21 139.057 168.276 138.908 169.376C139.019 170.129 139.722 170.495 140.33 170.8C148.676 176.182 156.987 181.621 165.34 186.989C164.835 189.275 164.055 191.491 163.471 193.759C152.79 186.722 142.183 179.569 131.49 172.553C132.952 166.384 134.742 160.298 136.288 154.148C138.687 144.914 141.024 135.663 143.527 126.453C146.394 115.957 149.075 105.412 151.923 94.9112Z" fill="#5F45D7"/>
<path d="M98.8472 127.216C111.154 121.81 123.466 116.409 135.768 111C136.206 111.117 137.022 111.246 136.792 111.896C132.238 129.079 127.629 146.247 123.067 163.424C122.997 163.859 122.791 164.281 122.327 164.389C110.177 168.959 98.0313 173.535 85.8751 178.085C85.4254 178.107 84.8229 177.975 84.7532 177.445C85.5676 173.442 86.8502 169.554 87.716 165.565C88.2155 163.571 88.7041 161.574 89.209 159.582C89.9527 156.005 91.1235 152.534 91.8808 148.961C92.9351 144.875 93.8229 140.749 94.9605 136.688C95.7857 133.857 96.2883 130.943 97.1372 128.121C97.6006 127.658 98.2688 127.491 98.8472 127.216ZM98.285 129.184C97.6463 131.33 97.1935 133.528 96.6739 135.706C95.0977 141.393 93.7467 147.138 92.3641 152.872C90.2187 160.576 88.595 168.411 86.4326 176.113C87.016 176.101 87.5368 175.813 88.077 175.626C91.9086 174.185 95.7356 172.74 99.5698 171.311C99.8887 171.149 100.315 171.118 100.518 170.792C101.35 167.125 102.442 163.526 103.376 159.887C105.291 152.74 107.203 145.596 109.119 138.453C109.155 137.995 109.586 137.793 109.951 137.632C114.219 135.788 118.48 133.924 122.745 132.067C125.42 130.97 127.995 129.596 130.789 128.813C131.176 127.975 131.331 127.06 131.581 126.182C132.74 121.845 133.886 117.504 135.055 113.172L134.687 113.152C122.559 118.506 110.379 123.762 98.285 129.184ZM110.51 138.209C110.196 138.375 109.7 138.452 109.675 138.901C106.925 149.109 104.22 159.334 101.449 169.538C102.301 169.095 103.22 168.804 104.113 168.459C109.672 166.35 115.241 164.261 120.797 162.142C123.744 151.424 126.488 140.645 129.47 129.936C123.165 132.729 116.831 135.456 110.51 138.209Z" fill="#5F45D7"/>
<path d="M131.533 115.536C132.319 115.221 133.061 114.8 133.875 114.556C132.656 119.04 131.517 123.549 130.25 128.02C128.606 128.408 127.103 129.189 125.554 129.84C120.254 132.15 114.951 134.458 109.649 136.767C109.098 136.994 108.489 137.296 108.437 137.977C105.577 148.716 102.659 159.442 99.8264 170.188C95.8017 171.787 91.7145 173.229 87.6793 174.802C89.0901 169.483 90.2343 164.098 91.6505 158.78C93.4089 152.466 94.6949 146.032 96.4683 139.717C97.4013 136.473 97.9865 133.142 98.908 129.898C109.755 125.058 120.664 120.336 131.533 115.536Z" fill="#5F45D7"/>
<path d="M81.1482 125.534C82.6144 126.502 84.0302 127.55 85.5355 128.46C81.4148 144.087 77.2204 159.698 73.2702 175.371C71.4138 182.44 69.487 189.49 67.6116 196.554C67.4894 196.902 67.6123 197.374 67.9703 197.542C70.4962 199.286 73.0785 200.949 75.5682 202.741C73.5201 203.544 71.4539 204.371 69.3655 205.032C66.6589 203.281 64.0215 201.423 61.3184 199.67C62.4504 194.871 63.8598 190.142 65.081 185.368C70.453 165.427 75.7383 145.464 81.1482 125.534Z" fill="#5F45D7"/>
<path d="M128.785 175.645C129.523 175.195 130.147 175.996 130.75 176.329C140.672 182.967 150.557 189.662 160.509 196.25C160.372 196.632 159.943 196.694 159.615 196.847C156.8 197.959 154.013 199.137 151.196 200.242L150.978 200.233C143.207 194.991 135.461 189.707 127.699 184.45C126.99 184.257 126.205 183.788 125.483 184.158C110.287 189.865 95.0604 195.485 79.8776 201.222C77.6088 199.742 75.3082 198.294 73.1119 196.705C73.4658 196.64 73.8209 196.581 74.1581 196.46C92.3645 189.516 110.578 182.589 128.785 175.645Z" fill="#5F45D7"/>
<path d="M127.091 188.013C130.167 189.898 133.081 192.068 136.115 194.035C141.023 197.432 146.019 200.706 150.906 204.135C153.58 205.921 156.2 207.8 158.922 209.518C157.166 212.597 155.139 215.527 153.29 218.555C139.54 240.276 125.807 262.011 112.058 283.732C101.478 276.511 90.8773 269.325 80.3101 262.089C95.8906 237.388 111.485 212.699 127.091 188.013Z" fill="#5F45D7"/>
<path d="M33.4414 192.13C35.8615 192.84 38.1523 193.957 40.5258 194.808C46.371 197.141 52.2234 199.448 58.0786 201.755C59.3961 202.088 60.4037 203.047 61.5334 203.745C62.8231 204.701 64.243 205.474 65.4945 206.475C65.2783 206.6 65.0586 206.727 64.8355 206.856C64.6117 207.529 64.4163 208.215 64.2866 208.915C64.655 209.424 64.8539 210.024 64.9669 210.641C61.6854 209.358 58.4092 208.044 55.154 206.695C50.1129 203.298 45.0853 199.872 40.0498 196.465C37.8399 195.036 35.7541 193.393 33.4414 192.13Z" fill="#5F45D7"/>
<path d="M143.746 22.346C154.536 29.542 165.226 36.8917 175.994 44.1228C176.326 44.293 176.603 44.5794 176.634 44.9715C179.154 59.2505 181.685 73.5297 184.217 87.8062C184.574 90.2622 185.215 92.6867 185.414 95.1612C178.03 92.5724 170.708 89.7966 163.323 87.2043C162.571 86.8808 161.432 86.6832 161.117 87.6947C158.767 86.161 156.431 84.5962 154.134 82.9864C150.732 62.9714 147.195 42.9753 143.733 22.9702C143.734 22.8136 143.742 22.5019 143.746 22.346ZM144.892 24.1849C145.965 30.4953 147.087 36.7984 148.166 43.1076C150.494 56.2306 152.672 69.3892 155.066 82.4949C156.805 83.7865 158.667 84.922 160.445 86.1659C161.003 86.6932 161.565 85.8205 162.174 86.0796C165.098 86.7585 167.848 87.9781 170.674 88.9618C175.228 90.5369 179.708 92.3389 184.298 93.8158C184.209 92.8589 183.984 91.9237 183.835 90.9767C181.131 75.663 178.403 60.3544 175.711 45.0409C165.434 38.0956 155.168 31.1329 144.892 24.1849Z" fill="black"/>
<path d="M141.92 23.3391C141.967 23.4447 142.06 23.6525 142.105 23.7547C145.509 43.3693 148.944 62.9777 152.322 82.5966C133.443 90.9879 114.507 99.2591 95.6111 107.617C95.2136 107.769 94.8315 108.091 94.3808 107.976C105.822 87.4878 117.357 67.0508 128.836 46.5843C133.202 38.8392 137.515 31.0652 141.92 23.3391ZM141.218 26.36C126.241 52.9671 111.344 79.6191 96.3308 106.208C96.8959 106.112 97.3919 105.809 97.9162 105.595C115.71 97.7764 133.476 89.892 151.285 82.1126C148.121 63.3674 144.756 44.653 141.57 25.9136C141.442 26.0538 141.324 26.2024 141.218 26.36Z" fill="black"/>
<path d="M152.924 84.2551C153.046 84.2326 153.288 84.1929 153.407 84.1724C155.877 85.8225 158.333 87.4921 160.798 89.1468C160.203 91.4552 159.748 93.8128 158.971 96.0638C156.37 94.5239 153.799 92.928 151.197 91.3936C151.087 91.3816 150.864 91.3569 150.752 91.3414C133.74 98.8288 116.712 106.289 99.6763 113.723C97.8639 112.575 96.0774 111.384 94.3347 110.138C98.3495 108.208 102.487 106.523 106.549 104.688C122.006 97.8736 137.469 91.0726 152.924 84.2551ZM96.3273 110.181C96.3249 110.244 96.3165 110.373 96.3134 110.439C97.4434 111.157 98.5705 111.886 99.6433 112.688C102.858 111.419 105.987 109.926 109.165 108.574C122.89 102.555 136.624 96.5612 150.339 90.5243C150.951 90.3715 151.587 90.7163 152.181 90.8696C154.309 92.1838 156.412 93.5556 158.624 94.7179C158.998 93.0304 159.462 91.3614 159.88 89.6828C157.672 88.1405 155.446 86.5761 153.154 85.1829C134.196 93.4803 115.282 101.883 96.3273 110.181Z" fill="black"/>
<path d="M162.635 88.6769C176.488 93.7083 190.356 98.68 204.179 103.785C183.902 124.217 163.592 144.619 143.307 165.045C142.973 165.392 142.617 165.715 142.238 166.015C143.9 159.551 145.685 153.117 147.393 146.665C149.257 139.906 150.816 133.068 152.677 126.308C156.032 113.775 159.267 101.207 162.635 88.6769ZM163.188 89.7871C158.699 106.734 154.142 123.664 149.771 140.639C147.837 148.007 145.855 155.36 143.952 162.736C143.094 162.863 143.663 163.595 143.888 163.158C163.458 143.438 183.078 123.763 202.631 104.021C189.448 99.3727 176.356 94.4695 163.188 89.7871Z" fill="black"/>
<path d="M162.319 148.405C176.862 133.8 191.353 119.138 205.932 104.572C216.609 111.723 227.243 118.935 237.907 126.104C238.356 126.396 238.81 126.683 239.203 127.056C223.205 143.151 207.155 159.193 191.139 175.269C185.953 180.443 180.817 185.671 175.602 190.814C164.331 183.605 153.119 176.311 141.897 169.028C148.625 162.081 155.523 155.29 162.319 148.405ZM206.034 105.718C191.56 120.336 177.029 134.897 162.538 149.502C156.158 155.963 149.678 162.331 143.372 168.859C154.049 175.848 164.765 182.789 175.513 189.662C196.243 168.777 217.078 147.986 237.836 127.125C227.206 120.036 216.633 112.854 206.034 105.718Z" fill="black"/>
<path d="M151.455 93.707C152.111 93.7783 152.624 94.2266 153.167 94.5582C154.936 95.6861 156.712 96.8074 158.485 97.9279C154.799 112.236 150.98 126.511 147.224 140.8C144.873 149.67 142.425 158.513 140.138 167.397C140.059 168.079 139.561 168.847 139.937 169.509C148.684 174.998 157.283 180.746 165.989 186.311C166.466 186.547 166.197 187.053 166.104 187.432C165.322 189.981 164.686 192.572 163.99 195.147C163.388 194.928 162.9 194.506 162.384 194.15C151.755 187.079 141.115 180.027 130.497 172.938C134.63 157.776 138.404 142.521 142.48 127.344C145.396 116.111 148.417 104.904 151.455 93.707ZM151.924 94.9112C149.075 105.412 146.395 115.957 143.527 126.453C141.025 135.663 138.688 144.914 136.289 154.148C134.743 160.298 132.953 166.384 131.491 172.553C142.184 179.569 152.79 186.722 163.472 193.759C164.056 191.491 164.836 189.275 165.341 186.989C156.988 181.621 148.677 176.182 140.331 170.8C139.722 170.495 139.02 170.129 138.909 169.376C139.058 168.276 139.387 167.21 139.635 166.134C141.491 159.263 143.284 152.375 145.097 145.492C149.312 129.823 153.487 114.146 157.557 98.4378C155.684 97.2557 153.849 96.0055 151.924 94.9112Z" fill="black"/>
<path d="M148.775 93.8751C149.144 93.7647 149.543 93.334 149.93 93.6236C147.817 102.06 145.468 110.436 143.248 118.843C141.338 125.787 139.647 132.788 137.773 139.741C134.843 150.781 132.023 161.847 129.072 172.882C118.704 176.888 108.298 180.806 97.9125 184.775C88.6967 188.256 79.5218 191.844 70.2813 195.254C72.4905 187.204 74.5049 179.102 76.6356 171.031C78.235 164.867 79.9021 158.721 81.4332 152.542C83.5893 144.495 85.7474 136.452 87.8981 128.403C88.672 125.439 89.2706 122.394 90.2776 119.512C109.773 110.961 129.281 102.43 148.775 93.8751ZM90.7855 120.279C87.9605 131.115 85.1741 141.957 82.249 152.766C78.6575 166.451 75.0586 180.131 71.5192 193.827C90.487 186.64 109.437 179.402 128.39 172.173C135.272 146.443 141.87 120.64 148.774 94.9157C129.42 103.307 110.123 111.842 90.7855 120.279Z" fill="black"/>
<path d="M135.105 110.296C135.805 109.902 136.565 110.431 137.27 110.559C137.424 110.809 137.579 111.063 137.737 111.318C133.134 128.952 128.36 146.55 123.686 164.169C123.616 164.929 122.818 165.168 122.223 165.416C110.181 169.933 98.1557 174.481 86.1057 178.981C85.4916 178.968 84.9138 178.7 84.322 178.57C84.1601 178.265 83.9148 177.99 83.8658 177.643C85.4776 170.805 87.3506 164.031 88.957 157.191C91.4839 147.404 93.8267 137.567 96.3833 127.788C96.4961 127.161 97.1981 127.009 97.6691 126.734C110.149 121.256 122.627 115.774 135.105 110.296ZM98.8481 127.216C98.2697 127.491 97.6014 127.658 97.138 128.121C96.2891 130.943 95.7866 133.857 94.9613 136.688C93.8238 140.749 92.936 144.875 91.8816 148.961C91.1244 152.534 89.9536 156.005 89.2099 159.582C88.705 161.574 88.2163 163.571 87.7168 165.565C86.8511 169.554 85.5684 173.442 84.7541 177.445C84.8237 177.975 85.4263 178.107 85.8759 178.085C98.0321 173.535 110.178 168.959 122.328 164.389C122.792 164.281 122.997 163.859 123.067 163.424C127.63 146.247 132.239 129.079 136.793 111.896C137.023 111.245 136.207 111.117 135.769 111C123.467 116.409 111.155 121.81 98.8481 127.216Z" fill="black"/>
<path d="M98.2856 129.184C110.379 123.762 122.559 118.506 134.687 113.152L135.056 113.172C133.887 117.504 132.741 121.845 131.582 126.182C131.332 127.06 131.177 127.975 130.79 128.813C127.996 129.596 125.421 130.97 122.746 132.067C118.48 133.924 114.219 135.788 109.952 137.632C109.587 137.793 109.156 137.995 109.12 138.453C107.203 145.596 105.292 152.74 103.377 159.887C102.442 163.526 101.35 167.125 100.519 170.792C100.315 171.118 99.8893 171.149 99.5705 171.311C95.7363 172.74 91.9093 174.185 88.0776 175.626C87.5374 175.813 87.0166 176.101 86.4333 176.113C88.5956 168.411 90.2193 160.576 92.3647 152.872C93.7474 147.138 95.0983 141.393 96.6745 135.705C97.1942 133.528 97.6469 131.33 98.2856 129.184ZM131.534 115.536C120.665 120.336 109.757 125.058 98.9094 129.898C97.9879 133.142 97.4027 136.473 96.4697 139.717C94.6963 146.032 93.4103 152.466 91.6519 158.78C90.2357 164.098 89.0915 169.483 87.6807 174.802C91.7159 173.229 95.8031 171.787 99.8278 170.188C102.661 159.442 105.578 148.716 108.438 137.977C108.49 137.296 109.099 136.994 109.65 136.767C114.953 134.458 120.255 132.149 125.555 129.84C127.104 129.188 128.607 128.408 130.251 128.02C131.519 123.549 132.657 119.04 133.876 114.556C133.062 114.8 132.32 115.221 131.534 115.536Z" fill="black"/>
<path d="M80.6133 124.164C82.6196 125.379 84.561 126.728 86.4674 128.099C82.7063 142.666 78.6333 157.152 75.0076 171.755C72.8378 180.08 70.6185 188.395 68.4453 196.722C71.0994 198.636 73.8622 200.394 76.5442 202.27C76.9924 202.448 76.9835 202.882 76.8664 203.286C74.4377 204.167 72.0214 205.078 69.6036 205.994C69.1376 206.099 68.7403 205.731 68.3683 205.506C65.6878 203.669 62.9632 201.898 60.289 200.048C67.0635 174.754 73.8597 149.466 80.6133 124.164ZM81.1482 125.534C75.7383 145.464 70.453 165.427 65.081 185.368C63.8598 190.142 62.4504 194.871 61.3184 199.67C64.0215 201.423 66.6589 203.281 69.3655 205.032C71.4539 204.371 73.5201 203.544 75.5682 202.741C73.0785 200.949 70.4962 199.286 67.9703 197.542C67.6123 197.374 67.4893 196.902 67.6116 196.554C69.487 189.49 71.4138 182.44 73.2702 175.371C77.2204 159.698 81.4148 144.087 85.5355 128.46C84.0302 127.55 82.6143 126.502 81.1482 125.534Z" fill="black"/>
<path d="M71.0485 133.368C73.4946 130.939 75.8273 128.381 78.3593 126.054C71.8657 150.472 65.2794 174.869 58.7634 199.284C47.2567 194.84 35.8213 190.207 24.3296 185.718C23.2168 185.184 21.999 184.901 20.9215 184.29C28.7015 176.253 36.622 168.341 44.4528 160.353C53.3192 151.357 62.1829 142.361 71.0485 133.368ZM74.4597 131.212C57.1098 148.835 39.7252 166.426 22.3907 184.067C34.3782 188.686 46.2712 193.55 58.2573 198.175C64.4521 175.109 70.6138 152.038 76.8086 128.972C75.9128 129.567 75.2533 130.48 74.4597 131.212Z" fill="black"/>
<path d="M71.833 196.356C91.0661 189.034 110.295 181.695 129.533 174.386C140.019 181.492 150.566 188.512 161.088 195.567C161.477 195.913 162.499 196.157 162.104 196.854C158.477 198.245 154.904 199.782 151.285 201.199C150.85 201.437 150.485 200.978 150.136 200.798C142.553 195.63 134.944 190.498 127.361 185.329C126.956 185.076 126.436 184.831 125.954 184.973C110.528 190.74 95.094 196.493 79.6673 202.263C77.0043 200.274 74.0343 198.705 71.4506 196.614C71.5462 196.55 71.7374 196.421 71.833 196.356ZM128.787 175.645C110.58 182.589 92.3667 189.516 74.1603 196.46C73.8231 196.581 73.468 196.64 73.1141 196.705C75.3104 198.294 77.611 199.742 79.8798 201.221C95.0626 195.485 110.29 189.865 125.485 184.158C126.208 183.788 126.993 184.257 127.701 184.45C135.463 189.707 143.209 194.991 150.981 200.233L151.199 200.242C154.015 199.137 156.802 197.959 159.617 196.847C159.945 196.694 160.374 196.631 160.511 196.25C150.559 189.662 140.674 182.967 130.753 176.329C130.149 175.996 129.525 175.195 128.787 175.645Z" fill="black"/>
<path d="M126.838 186.698C134.324 191.645 141.697 196.76 149.14 201.769C152.729 204.353 156.457 206.738 160.074 209.28L160.057 209.551C144.14 234.697 128.247 259.859 112.323 285C101.251 277.481 90.1918 269.94 79.1351 262.399C80.5293 259.837 82.2291 257.443 83.7438 254.951C98.1059 232.199 112.481 209.454 126.838 186.698ZM127.092 188.013C111.487 212.699 95.892 237.388 80.3115 262.089C90.8787 269.325 101.479 276.511 112.059 283.732C125.809 262.011 139.542 240.276 153.291 218.555C155.141 215.527 157.167 212.597 158.923 209.518C156.202 207.8 153.582 205.921 150.908 204.135C146.02 200.706 141.024 197.432 136.117 194.035C133.082 192.068 130.169 189.898 127.092 188.013Z" fill="black"/>
<path d="M116.327 190.445C118.943 189.515 121.504 188.411 124.157 187.599C122.654 190.321 120.858 192.877 119.238 195.536C105.597 217.144 91.9486 238.747 78.3077 260.355C77.8894 259.903 77.9352 259.223 77.7723 258.662C74.2953 242.057 70.8005 225.453 67.303 208.848C67.8295 208.506 68.4314 208.328 69.0142 208.112C84.7855 202.225 100.557 196.335 116.327 190.445ZM68.3638 209.327C70.7229 220.72 73.153 232.097 75.5271 243.489C76.5231 248.366 77.6519 253.223 78.5559 258.119C79.9123 256.326 80.9821 254.325 82.2318 252.453C95.5057 231.392 108.852 210.374 122.084 189.287C104.171 195.946 86.2784 202.671 68.3638 209.327Z" fill="black"/>
<path d="M26.8125 188.592C31.5266 190.19 36.0848 192.24 40.7488 193.981C45.8998 196.058 51.078 198.056 56.2304 200.129C57.3813 200.51 58.453 201.099 59.6374 201.387C61.7423 202.678 63.7054 204.184 65.7964 205.494C66.3667 205.92 67.0986 206.198 67.4832 206.83C66.5634 207.156 65.1459 207.186 65.1564 208.5C65.8254 209.542 65.935 210.822 66.1004 212.023C63.8143 211.149 61.5636 210.197 59.2845 209.307C57.257 208.377 55.0031 207.881 53.2126 206.488C44.4142 200.52 35.6116 194.557 26.8125 188.592ZM33.4429 192.13C35.7555 193.393 37.8414 195.036 40.0512 196.465C45.0867 199.872 50.1144 203.298 55.1555 206.695C58.4107 208.044 61.6869 209.358 64.9683 210.641C64.8553 210.024 64.6564 209.424 64.288 208.915C64.4178 208.215 64.6132 207.529 64.8369 206.856C65.06 206.727 65.2797 206.6 65.496 206.475C64.2445 205.474 62.8245 204.701 61.5348 203.745C60.4051 203.047 59.3975 202.088 58.0801 201.755C52.2249 199.448 46.3724 197.141 40.5272 194.808C38.1537 193.957 35.863 192.84 33.4429 192.13Z" fill="black"/>
<path d="M141.217 26.36C141.323 26.2024 141.441 26.0538 141.569 25.9136C144.755 44.653 148.119 63.3674 151.284 82.1125C133.474 89.892 115.709 97.7764 97.9149 105.595C97.3906 105.809 96.8947 106.112 96.3296 106.208C111.343 79.6191 126.239 52.9671 141.217 26.36Z" fill="#CDC0FF"/>
<path d="M163.187 89.7871C176.356 94.4695 189.448 99.3727 202.631 104.021C183.078 123.763 163.458 143.438 143.888 163.158C143.663 163.595 143.093 162.863 143.951 162.736C145.855 155.36 147.837 148.007 149.77 140.639C154.142 123.664 158.699 106.734 163.187 89.7871Z" fill="#CDC0FF"/>
<path d="M90.7844 120.279C110.122 111.842 129.419 103.307 148.773 94.9157C141.869 120.64 135.271 146.443 128.388 172.173C109.435 179.402 90.4858 186.64 71.518 193.827C75.0574 180.131 78.6563 166.451 82.2478 152.766C85.1729 141.957 87.9593 131.115 90.7844 120.279ZM135.104 110.296C122.627 115.774 110.149 121.256 97.6686 126.734C97.1976 127.009 96.4956 127.161 96.3828 127.788C93.8262 137.567 91.4834 147.404 88.9565 157.191C87.3501 164.031 85.4771 170.805 83.8652 177.643C83.9143 177.99 84.1596 178.265 84.3215 178.57C84.9133 178.7 85.491 178.968 86.1052 178.981C98.1552 174.481 110.18 169.933 122.223 165.416C122.817 165.168 123.615 164.929 123.685 164.169C128.36 146.55 133.133 128.952 137.737 111.318C137.579 111.063 137.423 110.809 137.27 110.559C136.565 110.431 135.804 109.902 135.104 110.296Z" fill="#CDC0FF"/>
<path d="M74.4586 131.212C75.2522 130.48 75.9117 129.567 76.8075 128.972C70.6127 152.038 64.451 175.109 58.2562 198.175C46.2701 193.55 34.3771 188.686 22.3896 184.067C39.7241 166.426 57.1087 148.835 74.4586 131.212Z" fill="#CDC0FF"/>
<path d="M68.3641 209.327C86.2788 202.671 104.171 195.946 122.084 189.287C108.853 210.374 95.5061 231.392 82.2322 252.453C80.9825 254.325 79.9127 256.326 78.5562 258.119C77.6523 253.223 76.5234 248.366 75.5274 243.489C73.1533 232.097 70.7233 220.72 68.3641 209.327Z" fill="#CDC0FF"/>
</g>
<defs>
<clipPath id="clip0_139_56">
<rect width="198.342" height="263.929" fill="white" transform="translate(68.7012 0.89209) rotate(15)"/>
</clipPath>
</defs>
</svg>
