<svg width="563" height="450" viewBox="0 0 563 450" fill="none" xmlns="http://www.w3.org/2000/svg">
<mask id="path-1-inside-1_2301_2399" fill="white">
<path d="M256.292 55.0432L110.908 147.462L319.64 219.966L451.665 126.277L256.292 55.0432ZM318.478 211.781L189.976 167.144L262.684 120.969L386.462 163.537L318.478 211.781ZM261.778 112.922L181.199 164.086L127.646 145.481L257.226 63.1143L436.107 128.337L393.846 158.328L261.778 112.922Z"/>
<path d="M242.108 0.969238L1.87662 153.084L-2.21997e-07 326.479L338.158 449.813L560.069 288.16L562.028 112.583L242.108 0.969238ZM7.45266 321.384L8.99822 160.219L333.996 273.525L333.925 440.459L7.45266 321.384ZM337.051 266.847L13.8698 154.156L243.032 9.03896L550.344 116.274L337.051 266.847ZM552.822 284.351L341.184 438.481L341.257 272.833L554.374 122.322L552.822 284.351Z"/>
<path d="M333.925 440.459L7.45266 321.384L8.99822 160.219L333.994 273.535L333.925 440.459Z"/>
<path d="M554.422 122.349L552.852 284.355L341.184 438.481L341.309 272.84L554.422 122.349Z"/>
<path d="M436.06 128.373L393.798 158.364L261.731 112.958L181.152 164.122L127.599 145.517L257.179 63.1504L436.06 128.373Z"/>
<path fill-rule="evenodd" clip-rule="evenodd" d="M6.92806 321.749L8.47604 160.215L8.99822 160.219L9.34168 159.231L335.04 272.782L334.969 440.459L333.925 440.459L333.746 440.95L6.92806 321.749ZM332.881 439.522L7.97726 321.019L9.51199 161.505L332.95 274.278L332.881 439.522ZM333.994 273.535L333.925 439.903L333.996 273.535L333.996 273.531L333.996 273.525L9.51923 160.4L333.992 273.534L333.994 273.535ZM318.643 212.945L187.589 167.422L262.549 119.817L388.728 163.211L318.643 212.945ZM261.643 111.77L393.678 157.165L433.828 128.672L257.304 64.309L130.038 145.206L181.066 162.933L261.643 111.77ZM434.914 127.902L257.226 63.1143L127.646 145.481L127.653 145.484L257.179 63.1504L434.864 127.937L434.867 127.938L436.057 128.372L436.061 128.369L436.107 128.337L434.916 127.902L434.914 127.902ZM438.286 128.072L438.336 128.037L257.1 61.9557L125.261 145.759L125.267 145.761L125.213 145.795L181.286 165.275L261.867 114.111L393.965 159.527L438.288 128.073L438.286 128.072ZM337.215 268.011L11.4823 154.431L242.9 7.88553L552.607 115.956L337.215 268.011ZM553.893 284.89L555.48 120.323L555.431 120.358L555.431 120.295L340.213 272.291L340.139 440.535L553.893 284.89ZM341.257 272.833L341.184 438.481L341.309 272.84L341.318 272.833L554.373 122.384L554.374 122.322L341.257 272.833ZM342.353 273.382L342.229 436.427L551.781 283.816L553.315 124.411L342.353 273.382ZM110.908 147.462L319.64 219.966L451.665 126.277L256.292 55.0432L110.908 147.462ZM113.294 147.184L256.417 56.2019L449.436 126.577L319.474 218.802L113.294 147.184ZM262.684 120.969L386.462 163.537L318.478 211.781L189.976 167.144L262.684 120.969ZM1.87662 153.084L-2.21997e-07 326.479L338.158 449.813L560.069 288.16L562.028 112.583L242.108 0.969238L1.87662 153.084ZM242.241 2.12264L560.978 113.323L559.028 287.625L337.993 448.64L1.04993 325.749L2.91665 153.663L242.241 2.12264ZM243.032 9.03896L550.344 116.274L337.051 266.847L13.8698 154.156L243.032 9.03896Z"/>
<path d="M243.032 9.03896L13.8698 154.156L337.113 266.855L550.395 116.281L243.032 9.03896ZM319.64 219.966L110.908 147.462L256.292 55.0432L451.665 126.277L319.64 219.966Z"/>
<path fill-rule="evenodd" clip-rule="evenodd" d="M319.805 221.13L108.522 147.74L256.166 53.8846L453.894 125.976L319.805 221.13ZM13.8698 154.156L337.113 266.855L550.395 116.281L243.032 9.03896L13.8698 154.156ZM16.2566 153.881L243.164 10.1923L548.133 116.598L336.949 265.691L16.2566 153.881ZM319.64 219.966L110.908 147.462L256.292 55.0432L451.665 126.277L319.64 219.966Z"/>
</mask>
<path d="M256.292 55.0432L110.908 147.462L319.64 219.966L451.665 126.277L256.292 55.0432ZM318.478 211.781L189.976 167.144L262.684 120.969L386.462 163.537L318.478 211.781ZM261.778 112.922L181.199 164.086L127.646 145.481L257.226 63.1143L436.107 128.337L393.846 158.328L261.778 112.922Z" fill="#5947D2"/>
<path d="M242.108 0.969238L1.87662 153.084L-2.21997e-07 326.479L338.158 449.813L560.069 288.16L562.028 112.583L242.108 0.969238ZM7.45266 321.384L8.99822 160.219L333.996 273.525L333.925 440.459L7.45266 321.384ZM337.051 266.847L13.8698 154.156L243.032 9.03896L550.344 116.274L337.051 266.847ZM552.822 284.351L341.184 438.481L341.257 272.833L554.374 122.322L552.822 284.351Z" fill="#5947D2"/>
<path d="M333.925 440.459L7.45266 321.384L8.99822 160.219L333.994 273.535L333.925 440.459Z" fill="#5947D2"/>
<path d="M554.422 122.349L552.852 284.355L341.184 438.481L341.309 272.84L554.422 122.349Z" fill="#5947D2"/>
<path d="M436.06 128.373L393.798 158.364L261.731 112.958L181.152 164.122L127.599 145.517L257.179 63.1504L436.06 128.373Z" fill="#5947D2"/>
<path fill-rule="evenodd" clip-rule="evenodd" d="M6.92806 321.749L8.47604 160.215L8.99822 160.219L9.34168 159.231L335.04 272.782L334.969 440.459L333.925 440.459L333.746 440.95L6.92806 321.749ZM332.881 439.522L7.97726 321.019L9.51199 161.505L332.95 274.278L332.881 439.522ZM333.994 273.535L333.925 439.903L333.996 273.535L333.996 273.531L333.996 273.525L9.51923 160.4L333.992 273.534L333.994 273.535ZM318.643 212.945L187.589 167.422L262.549 119.817L388.728 163.211L318.643 212.945ZM261.643 111.77L393.678 157.165L433.828 128.672L257.304 64.309L130.038 145.206L181.066 162.933L261.643 111.77ZM434.914 127.902L257.226 63.1143L127.646 145.481L127.653 145.484L257.179 63.1504L434.864 127.937L434.867 127.938L436.057 128.372L436.061 128.369L436.107 128.337L434.916 127.902L434.914 127.902ZM438.286 128.072L438.336 128.037L257.1 61.9557L125.261 145.759L125.267 145.761L125.213 145.795L181.286 165.275L261.867 114.111L393.965 159.527L438.288 128.073L438.286 128.072ZM337.215 268.011L11.4823 154.431L242.9 7.88553L552.607 115.956L337.215 268.011ZM553.893 284.89L555.48 120.323L555.431 120.358L555.431 120.295L340.213 272.291L340.139 440.535L553.893 284.89ZM341.257 272.833L341.184 438.481L341.309 272.84L341.318 272.833L554.373 122.384L554.374 122.322L341.257 272.833ZM342.353 273.382L342.229 436.427L551.781 283.816L553.315 124.411L342.353 273.382ZM110.908 147.462L319.64 219.966L451.665 126.277L256.292 55.0432L110.908 147.462ZM113.294 147.184L256.417 56.2019L449.436 126.577L319.474 218.802L113.294 147.184ZM262.684 120.969L386.462 163.537L318.478 211.781L189.976 167.144L262.684 120.969ZM1.87662 153.084L-2.21997e-07 326.479L338.158 449.813L560.069 288.16L562.028 112.583L242.108 0.969238L1.87662 153.084ZM242.241 2.12264L560.978 113.323L559.028 287.625L337.993 448.64L1.04993 325.749L2.91665 153.663L242.241 2.12264ZM243.032 9.03896L550.344 116.274L337.051 266.847L13.8698 154.156L243.032 9.03896Z" fill="#5947D2"/>
<path d="M243.032 9.03896L13.8698 154.156L337.113 266.855L550.395 116.281L243.032 9.03896ZM319.64 219.966L110.908 147.462L256.292 55.0432L451.665 126.277L319.64 219.966Z" fill="#C8BFFF"/>
<path fill-rule="evenodd" clip-rule="evenodd" d="M319.805 221.13L108.522 147.74L256.166 53.8846L453.894 125.976L319.805 221.13ZM13.8698 154.156L337.113 266.855L550.395 116.281L243.032 9.03896L13.8698 154.156ZM16.2566 153.881L243.164 10.1923L548.133 116.598L336.949 265.691L16.2566 153.881ZM319.64 219.966L110.908 147.462L256.292 55.0432L451.665 126.277L319.64 219.966Z" fill="#C8BFFF"/>
<path d="M256.292 55.0432L256.463 54.5735L256.231 54.4891L256.023 54.6213L256.292 55.0432ZM110.908 147.462L110.64 147.04L109.767 147.595L110.744 147.934L110.908 147.462ZM319.64 219.966L319.475 220.438L319.719 220.523L319.929 220.374L319.64 219.966ZM451.665 126.277L451.955 126.684L452.731 126.133L451.837 125.807L451.665 126.277ZM318.478 211.781L318.314 212.253L318.557 212.338L318.767 212.189L318.478 211.781ZM189.976 167.144L189.708 166.722L188.834 167.277L189.812 167.617L189.976 167.144ZM262.684 120.969L262.847 120.496L262.619 120.418L262.416 120.547L262.684 120.969ZM386.462 163.537L386.752 163.945L387.546 163.381L386.625 163.064L386.462 163.537ZM242.108 0.969238L242.273 0.497145L242.045 0.417568L241.841 0.546803L242.108 0.969238ZM1.87662 153.084L1.60914 152.661L1.37959 152.807L1.37665 153.078L1.87662 153.084ZM-2.21997e-07 326.479L-0.499971 326.473L-0.503801 326.827L-0.171322 326.949L-2.21997e-07 326.479ZM338.158 449.813L337.987 450.282L338.237 450.374L338.452 450.217L338.158 449.813ZM560.069 288.16L560.363 288.564L560.566 288.416L560.568 288.166L560.069 288.16ZM562.028 112.583L562.528 112.588L562.532 112.229L562.193 112.111L562.028 112.583ZM7.45266 321.384L6.95268 321.379L6.94929 321.733L7.28133 321.854L7.45266 321.384ZM337.051 266.847L336.887 267.319L337.13 267.404L337.34 267.255L337.051 266.847ZM13.8698 154.156L13.6023 153.734L12.7278 154.288L13.7051 154.628L13.8698 154.156ZM243.032 9.03896L243.197 8.56687L242.969 8.48728L242.765 8.61653L243.032 9.03896ZM550.344 116.274L550.633 116.682L551.427 116.122L550.509 115.802L550.344 116.274ZM341.184 438.481L340.684 438.481L341.684 438.482L341.184 438.481ZM341.257 272.833L340.969 272.425L340.757 272.574L340.757 272.833L341.257 272.833ZM337.113 266.855L336.948 267.327L337.191 267.412L337.401 267.263L337.113 266.855ZM550.395 116.281L550.684 116.689L551.478 116.129L550.56 115.809L550.395 116.281ZM256.023 54.6213L110.64 147.04L111.177 147.884L256.56 55.4652L256.023 54.6213ZM110.744 147.934L319.475 220.438L319.804 219.494L111.072 146.99L110.744 147.934ZM319.929 220.374L451.955 126.684L451.376 125.869L319.35 219.558L319.929 220.374ZM451.837 125.807L256.463 54.5735L256.12 55.513L451.494 126.746L451.837 125.807ZM318.642 211.309L190.14 166.672L189.812 167.617L318.314 212.253L318.642 211.309ZM190.244 167.566L262.952 121.391L262.416 120.547L189.708 166.722L190.244 167.566ZM262.522 121.442L386.3 164.01L386.625 163.064L262.847 120.496L262.522 121.442ZM386.173 163.129L318.188 211.373L318.767 212.189L386.752 163.945L386.173 163.129ZM127.915 145.903L257.494 63.5363L256.958 62.6924L127.378 145.059L127.915 145.903ZM241.841 0.546803L1.60914 152.661L2.14411 153.506L242.376 1.39167L241.841 0.546803ZM1.37665 153.078L-0.499971 326.473L0.49997 326.484L2.37659 153.089L1.37665 153.078ZM-0.171322 326.949L337.987 450.282L338.329 449.343L0.171322 326.009L-0.171322 326.949ZM338.452 450.217L560.363 288.564L559.774 287.756L337.863 449.408L338.452 450.217ZM560.568 288.166L562.528 112.588L561.528 112.577L559.569 288.154L560.568 288.166ZM562.193 112.111L242.273 0.497145L241.944 1.44133L561.863 113.055L562.193 112.111ZM7.95264 321.389L9.4982 160.224L8.49825 160.214L6.95268 321.379L7.95264 321.389ZM334.096 439.989L7.62398 320.914L7.28133 321.854L333.754 440.929L334.096 439.989ZM337.216 266.375L14.0344 153.684L13.7051 154.628L336.887 267.319L337.216 266.375ZM14.1373 154.579L243.3 9.46138L242.765 8.61653L13.6023 153.734L14.1373 154.579ZM242.868 9.51104L550.18 116.746L550.509 115.802L243.197 8.56688L242.868 9.51104ZM550.056 115.866L336.763 266.438L337.34 267.255L550.633 116.682L550.056 115.866ZM341.684 438.481L341.757 272.834L340.757 272.833L340.684 438.481L341.684 438.481ZM341.545 273.242L554.662 122.73L554.085 121.914L340.969 272.425L341.545 273.242ZM341.684 438.482L341.809 272.84L340.809 272.84L340.684 438.481L341.684 438.482ZM13.7052 154.628L336.948 267.327L337.277 266.383L14.0344 153.684L13.7052 154.628ZM337.401 267.263L550.684 116.689L550.107 115.872L336.824 266.446L337.401 267.263ZM550.56 115.809L243.197 8.56687L242.868 9.51105L550.231 116.753L550.56 115.809ZM261.778 112.922L262.104 111.977L261.649 111.82L261.242 112.078L261.778 112.922ZM181.199 164.086L180.871 165.03L181.328 165.189L181.736 164.93L181.199 164.086ZM127.646 145.481L127.975 144.537L127.317 146.426L127.646 145.481ZM436.107 128.337L436.686 129.152L438.239 128.05L436.449 127.397L436.107 128.337ZM393.846 158.328L393.52 159.273L394.006 159.44L394.424 159.143L393.846 158.328ZM333.996 273.525L334.996 273.525L334.996 272.814L334.325 272.58L333.996 273.525ZM552.822 284.351L553.41 285.159L553.817 284.863L553.821 284.361L552.822 284.351ZM341.184 438.481L340.596 437.673L341.773 439.29L341.184 438.481ZM554.374 122.322L555.374 122.329L553.374 122.312L554.374 122.322ZM333.994 273.535L334.994 273.536L334.995 272.825L334.324 272.591L333.994 273.535ZM554.422 122.349L555.422 122.359L555.441 120.406L553.846 121.533L554.422 122.349ZM552.852 284.355L553.441 285.163L553.847 284.868L553.852 284.365L552.852 284.355ZM341.309 272.84L340.732 272.023L341.885 273.658L341.309 272.84ZM436.06 128.373L436.638 129.188L438.192 128.086L436.402 127.433L436.06 128.373ZM393.798 158.364L393.473 159.309L393.959 159.476L394.377 159.179L393.798 158.364ZM261.731 112.958L262.056 112.013L261.601 111.856L261.195 112.114L261.731 112.958ZM181.152 164.122L180.824 165.066L181.28 165.225L181.688 164.966L181.152 164.122ZM127.599 145.517L127.063 144.673L125.317 145.783L127.271 146.462L127.599 145.517ZM257.179 63.1504L257.521 62.2109L257.058 62.042L256.642 62.3064L257.179 63.1504ZM6.92806 321.749L5.92811 321.74L5.92133 322.446L6.58541 322.689L6.92806 321.749ZM8.47604 160.215L8.48261 159.215L7.48564 159.209L7.47609 160.206L8.47604 160.215ZM9.34168 159.231L9.67089 158.287L8.72595 157.958L8.39719 158.903L9.34168 159.231ZM335.04 272.782L336.04 272.782L336.041 272.071L335.37 271.837L335.04 272.782ZM334.969 440.459L334.969 441.459L335.969 441.46L335.969 440.46L334.969 440.459ZM333.746 440.95L333.403 441.89L334.344 442.233L334.686 441.292L333.746 440.95ZM332.881 439.522L332.538 440.461L333.88 440.951L333.881 439.522L332.881 439.522ZM7.97726 321.019L6.9773 321.009L6.9705 321.716L7.6346 321.959L7.97726 321.019ZM9.51199 161.505L9.84122 160.561L8.52544 160.102L8.51203 161.495L9.51199 161.505ZM332.95 274.278L333.95 274.279L333.95 273.568L333.279 273.334L332.95 274.278ZM333.925 439.903L332.925 439.902L334.925 439.903L333.925 439.903ZM333.996 273.535L334.996 273.536L334.996 273.527L333.996 273.535ZM333.996 273.531L332.996 273.526L332.996 273.54L333.996 273.531ZM9.51923 160.4L9.84844 159.456L9.19 161.345L9.51923 160.4ZM333.992 273.534L333.663 274.479L333.667 274.48L333.992 273.534ZM318.643 212.945L318.315 213.89L318.802 214.059L319.222 213.761L318.643 212.945ZM187.589 167.422L187.053 166.578L185.306 167.687L187.261 168.367L187.589 167.422ZM262.549 119.817L262.874 118.871L262.419 118.714L262.013 118.972L262.549 119.817ZM388.728 163.211L389.307 164.026L390.896 162.899L389.053 162.265L388.728 163.211ZM261.643 111.77L261.968 110.825L261.513 110.668L261.107 110.926L261.643 111.77ZM393.678 157.165L393.353 158.11L393.839 158.277L394.257 157.98L393.678 157.165ZM433.828 128.672L434.407 129.487L435.961 128.385L434.171 127.732L433.828 128.672ZM257.304 64.309L257.647 63.3695L257.184 63.2007L256.768 63.4651L257.304 64.309ZM130.038 145.206L129.502 144.362L127.756 145.471L129.71 146.15L130.038 145.206ZM181.066 162.933L180.738 163.877L181.194 164.036L181.602 163.777L181.066 162.933ZM434.914 127.902L435.26 126.963L435.257 126.962L434.914 127.902ZM127.653 145.484L127.323 146.428L127.781 146.587L128.189 146.327L127.653 145.484ZM434.864 127.937L435.21 126.998L435.207 126.997L434.864 127.937ZM434.867 127.938L434.521 128.876L434.524 128.877L434.867 127.938ZM436.057 128.372L435.715 129.311L436.211 129.492L436.64 129.185L436.057 128.372ZM436.061 128.369L435.482 127.554L435.479 127.556L436.061 128.369ZM434.916 127.902L434.571 128.841L434.574 128.842L434.916 127.902ZM438.286 128.072L437.708 127.256L436.151 128.36L437.945 129.012L438.286 128.072ZM438.336 128.037L438.914 128.852L440.468 127.75L438.678 127.097L438.336 128.037ZM257.1 61.9557L257.443 61.0162L256.98 60.8474L256.564 61.1118L257.1 61.9557ZM125.261 145.759L124.724 144.915L122.981 146.024L124.932 146.704L125.261 145.759ZM125.267 145.761L125.803 146.605L127.547 145.497L125.596 144.817L125.267 145.761ZM125.213 145.795L124.677 144.951L122.931 146.061L124.885 146.74L125.213 145.795ZM181.286 165.275L180.958 166.22L181.414 166.378L181.822 166.119L181.286 165.275ZM261.867 114.111L262.192 113.165L261.737 113.008L261.331 113.266L261.867 114.111ZM393.965 159.527L393.64 160.472L394.126 160.639L394.544 160.342L393.965 159.527ZM438.288 128.073L438.867 128.888L440.423 127.784L438.63 127.133L438.288 128.073ZM337.215 268.011L336.885 268.955L337.371 269.125L337.791 268.828L337.215 268.011ZM11.4823 154.431L10.9473 153.586L9.19834 154.694L11.153 155.375L11.4823 154.431ZM242.9 7.88553L243.229 6.94136L242.773 6.78216L242.365 7.04067L242.9 7.88553ZM552.607 115.956L553.183 116.773L554.771 115.652L552.936 115.012L552.607 115.956ZM553.893 284.89L554.482 285.699L554.888 285.403L554.893 284.9L553.893 284.89ZM555.48 120.323L556.48 120.333L556.499 118.38L554.904 119.506L555.48 120.323ZM555.431 120.358L554.431 120.351L554.417 122.297L556.007 121.175L555.431 120.358ZM555.431 120.295L556.431 120.303L556.445 118.355L554.854 119.479L555.431 120.295ZM340.213 272.291L339.636 271.474L339.213 271.773L339.213 272.291L340.213 272.291ZM340.139 440.535L339.139 440.535L339.139 442.501L340.728 441.343L340.139 440.535ZM341.318 272.833L341.894 273.651L341.895 273.65L341.318 272.833ZM554.373 122.384L554.95 123.201L555.369 122.905L555.373 122.391L554.373 122.384ZM342.229 436.427L341.229 436.426L341.228 438.394L342.818 437.236L342.229 436.427ZM342.353 273.382L341.776 272.565L341.353 272.864L341.353 273.382L342.353 273.382ZM551.781 283.816L552.369 284.625L552.776 284.329L552.781 283.826L551.781 283.816ZM553.315 124.411L554.315 124.42L554.334 122.467L552.739 123.594L553.315 124.411ZM113.294 147.184L112.758 146.34L111.012 147.45L112.966 148.129L113.294 147.184ZM256.417 56.2019L256.76 55.2624L256.297 55.0935L255.881 55.3579L256.417 56.2019ZM449.436 126.577L450.015 127.392L451.569 126.29L449.779 125.637L449.436 126.577ZM319.474 218.802L319.146 219.746L319.633 219.915L320.053 219.617L319.474 218.802ZM242.241 2.12264L242.57 1.17846L242.114 1.0193L241.706 1.27777L242.241 2.12264ZM560.978 113.323L561.978 113.335L561.986 112.616L561.307 112.379L560.978 113.323ZM559.028 287.625L559.617 288.433L560.023 288.137L560.028 287.636L559.028 287.625ZM337.993 448.64L337.65 449.579L338.151 449.762L338.582 449.448L337.993 448.64ZM1.04993 325.749L0.0499931 325.738L0.0423154 326.446L0.707291 326.688L1.04993 325.749ZM2.91665 153.663L2.38168 152.818L1.9226 153.108L1.91671 153.652L2.91665 153.663ZM319.805 221.13L319.476 222.075L319.963 222.244L320.383 221.946L319.805 221.13ZM108.522 147.74L107.986 146.896L106.24 148.006L108.194 148.685L108.522 147.74ZM256.166 53.8846L256.508 52.9451L256.045 52.7762L255.629 53.0407L256.166 53.8846ZM453.894 125.976L454.473 126.792L456.026 125.689L454.236 125.037L453.894 125.976ZM16.2566 153.881L15.7216 153.036L13.9726 154.144L15.9274 154.826L16.2566 153.881ZM243.164 10.1923L243.493 9.2481L243.037 9.08892L242.629 9.34743L243.164 10.1923ZM548.133 116.598L548.71 117.415L550.297 116.295L548.462 115.654L548.133 116.598ZM336.949 265.691L336.62 266.635L337.106 266.804L337.526 266.508L336.949 265.691ZM261.242 112.078L180.663 163.242L181.736 164.93L262.314 113.767L261.242 112.078ZM181.528 163.141L127.975 144.537L127.318 146.426L180.871 165.03L181.528 163.141ZM256.883 64.0538L435.764 129.276L436.45 127.397L257.568 62.1748L256.883 64.0538ZM435.528 127.521L393.267 157.512L394.424 159.143L436.686 129.152L435.528 127.521ZM394.171 157.382L262.104 111.977L261.453 113.868L393.52 159.273L394.171 157.382ZM8.66902 161.163L333.667 274.469L334.325 272.58L9.32743 159.274L8.66902 161.163ZM332.996 273.524L332.925 440.459L334.925 440.46L334.996 273.525L332.996 273.524ZM552.233 283.543L340.596 437.673L341.773 439.29L553.41 285.159L552.233 283.543ZM553.374 122.312L551.822 284.342L553.821 284.361L555.374 122.332L553.374 122.312ZM8.66899 161.163L333.665 274.479L334.324 272.591L9.32746 159.274L8.66899 161.163ZM332.994 273.535L332.925 440.459L334.925 440.46L334.994 273.536L332.994 273.535ZM553.422 122.34L551.852 284.345L553.852 284.365L555.422 122.359L553.422 122.34ZM552.264 283.547L340.596 437.673L341.773 439.29L553.441 285.163L552.264 283.547ZM341.885 273.657L554.999 123.166L553.846 121.533L340.732 272.023L341.885 273.657ZM435.481 127.557L393.22 157.548L394.377 159.179L436.638 129.188L435.481 127.557ZM394.123 157.418L262.056 112.013L261.406 113.904L393.473 159.309L394.123 157.418ZM261.195 112.114L180.616 163.278L181.688 164.966L262.267 113.803L261.195 112.114ZM181.48 163.177L127.927 144.573L127.271 146.462L180.824 165.066L181.48 163.177ZM128.136 146.361L257.715 63.9943L256.642 62.3064L127.063 144.673L128.136 146.361ZM256.836 64.0899L435.717 129.312L436.402 127.433L257.521 62.2109L256.836 64.0899ZM9.00479 159.219L8.48261 159.215L8.46948 161.215L8.99165 161.219L9.00479 159.219ZM8.39719 158.903L8.05373 159.89L9.94272 160.547L10.2862 159.56L8.39719 158.903ZM333.925 441.459L334.969 441.459L334.97 439.459L333.925 439.459L333.925 441.459ZM334.686 441.292L334.865 440.801L332.985 440.117L332.806 440.608L334.686 441.292ZM333.223 438.582L8.31991 320.08L7.6346 321.959L332.538 440.461L333.223 438.582ZM8.97721 321.029L10.5119 161.515L8.51203 161.495L6.9773 321.009L8.97721 321.029ZM9.18275 162.449L332.621 275.222L333.279 273.334L9.84122 160.561L9.18275 162.449ZM331.95 274.278L331.881 439.521L333.881 439.522L333.95 274.279L331.95 274.278ZM334.925 439.903L334.994 273.536L332.994 273.535L332.925 439.902L334.925 439.903ZM332.996 273.535L332.925 439.902L334.925 439.903L334.996 273.536L332.996 273.535ZM332.996 273.54L332.996 273.543L334.996 273.527L334.996 273.523L332.996 273.54ZM332.996 273.52L332.996 273.526L334.996 273.536L334.996 273.53L332.996 273.52ZM9.19003 161.345L333.667 274.469L334.325 272.58L9.84844 159.456L9.19003 161.345ZM334.32 272.59L334.318 272.589L333.667 274.48L333.669 274.481L334.32 272.59ZM433.25 127.856L393.1 156.349L394.257 157.98L434.407 129.487L433.25 127.856ZM256.962 65.2485L433.486 129.611L434.171 127.732L257.647 63.3695L256.962 65.2485ZM130.575 146.05L257.841 65.1529L256.768 63.4651L129.502 144.362L130.575 146.05ZM181.394 161.988L130.366 144.261L129.71 146.15L180.738 163.877L181.394 161.988ZM256.883 64.0538L434.571 128.841L435.257 126.962L257.568 62.1748L256.883 64.0538ZM127.982 144.539L127.975 144.537L127.317 146.426L127.323 146.428L127.982 144.539ZM435.212 126.999L435.21 126.998L434.519 128.875L434.521 128.876L435.212 126.999ZM436.4 127.432L435.209 126.998L434.524 128.877L435.715 129.311L436.4 127.432ZM435.528 127.521L435.482 127.554L436.639 129.185L436.686 129.152L435.528 127.521ZM434.568 128.84L434.571 128.841L435.262 126.964L435.26 126.963L434.568 128.84ZM438.865 128.887L438.914 128.852L437.757 127.221L437.708 127.256L438.865 128.887ZM124.932 146.704L124.938 146.706L125.596 144.817L125.59 144.815L124.932 146.704ZM124.73 144.918L124.677 144.951L125.75 146.639L125.803 146.605L124.73 144.918ZM438.63 127.133L438.627 127.132L437.945 129.012L437.947 129.013L438.63 127.133ZM554.904 119.506L554.854 119.541L556.007 121.175L556.057 121.14L554.904 119.506ZM556.431 120.365L556.431 120.303L554.431 120.288L554.431 120.351L556.431 120.365ZM340.742 272.016L340.733 272.023L341.885 273.658L341.894 273.651L340.742 272.016ZM343.229 436.428L343.353 273.383L341.353 273.382L341.229 436.426L343.229 436.428ZM551.192 283.008L341.641 435.619L342.818 437.236L552.369 284.625L551.192 283.008ZM552.315 124.401L550.781 283.807L552.781 283.826L554.315 124.42L552.315 124.401ZM342.93 274.199L553.892 125.227L552.739 123.594L341.776 272.565L342.93 274.199ZM113.831 148.028L256.954 57.0458L255.881 55.3579L112.758 146.34L113.831 148.028ZM256.075 57.1414L449.094 127.516L449.779 125.637L256.76 55.2624L256.075 57.1414ZM448.858 125.761L318.895 217.986L320.053 219.617L450.015 127.392L448.858 125.761ZM319.802 217.857L113.622 146.239L112.966 148.129L319.146 219.746L319.802 217.857ZM241.911 3.06683L560.648 114.268L561.307 112.379L242.57 1.17846L241.911 3.06683ZM559.978 113.312L558.028 287.613L560.028 287.636L561.978 113.335L559.978 113.312ZM558.44 286.816L337.404 447.831L338.582 449.448L559.617 288.433L558.44 286.816ZM338.336 447.7L1.39258 324.81L0.707291 326.688L337.65 449.579L338.336 447.7ZM2.04988 325.76L3.91659 153.673L1.91671 153.652L0.0499931 325.738L2.04988 325.76ZM3.45162 154.507L242.776 2.96751L241.706 1.27777L2.38168 152.818L3.45162 154.507ZM7.47609 160.206L5.92811 321.74L7.92801 321.759L9.476 160.225L7.47609 160.206ZM335.37 271.837L9.67089 158.287L9.01248 160.176L334.711 273.726L335.37 271.837ZM335.969 440.46L336.04 272.782L334.04 272.781L333.969 440.459L335.969 440.46ZM6.58541 322.689L333.403 441.89L334.089 440.011L7.27071 320.81L6.58541 322.689ZM334.322 272.59L9.84847 159.456L9.19 161.345L333.663 274.479L334.322 272.59ZM187.261 168.367L318.315 213.89L318.971 212.001L187.917 166.477L187.261 168.367ZM262.013 118.972L187.053 166.578L188.125 168.266L263.085 120.661L262.013 118.972ZM389.053 162.265L262.874 118.871L262.224 120.762L388.403 164.156L389.053 162.265ZM319.222 213.761L389.307 164.026L388.149 162.395L318.065 212.13L319.222 213.761ZM394.003 156.219L261.968 110.825L261.318 112.716L393.353 158.11L394.003 156.219ZM261.107 110.926L180.53 162.088L181.602 163.777L262.179 112.614L261.107 110.926ZM256.642 62.3064L127.116 144.64L128.189 146.327L257.715 63.9943L256.642 62.3064ZM435.207 126.997L257.521 62.2109L256.836 64.0899L434.522 128.876L435.207 126.997ZM434.574 128.842L435.764 129.276L436.449 127.397L435.259 126.963L434.574 128.842ZM438.678 127.097L257.443 61.0162L256.758 62.8952L437.993 128.976L438.678 127.097ZM256.564 61.1118L124.724 144.915L125.797 146.603L257.637 62.7997L256.564 61.1118ZM124.885 146.74L180.958 166.22L181.614 164.33L125.542 144.851L124.885 146.74ZM181.822 166.119L262.403 114.955L261.331 113.266L180.75 164.431L181.822 166.119ZM261.542 115.056L393.64 160.472L394.291 158.581L262.192 113.165L261.542 115.056ZM394.544 160.342L438.867 128.888L437.71 127.257L393.387 158.711L394.544 160.342ZM11.153 155.375L336.885 268.955L337.544 267.067L11.8115 153.487L11.153 155.375ZM242.365 7.04067L10.9473 153.586L12.0173 155.276L243.435 8.73038L242.365 7.04067ZM552.936 115.012L243.229 6.94136L242.571 8.82969L552.277 116.9L552.936 115.012ZM337.791 268.828L553.183 116.773L552.03 115.139L336.638 267.194L337.791 268.828ZM340.728 441.343L554.482 285.699L553.304 284.082L339.551 439.727L340.728 441.343ZM554.893 284.9L556.48 120.333L554.48 120.313L552.893 284.88L554.893 284.9ZM554.854 119.479L339.636 271.474L340.79 273.108L556.008 121.112L554.854 119.479ZM339.213 272.291L339.139 440.535L341.139 440.535L341.213 272.292L339.213 272.291ZM553.796 121.567L340.741 272.017L341.895 273.65L554.95 123.201L553.796 121.567ZM553.374 122.315L553.373 122.377L555.373 122.391L555.374 122.329L553.374 122.315ZM16.7916 154.726L243.699 11.0371L242.629 9.34743L15.7216 153.036L16.7916 154.726ZM242.834 11.1365L547.803 117.543L548.462 115.654L243.493 9.2481L242.834 11.1365ZM547.556 115.782L336.373 264.874L337.526 266.508L548.71 117.415L547.556 115.782ZM337.279 264.746L16.5858 152.937L15.9274 154.826L336.62 266.635L337.279 264.746ZM108.194 148.685L319.476 222.075L320.133 220.185L108.85 146.795L108.194 148.685ZM255.629 53.0407L107.986 146.896L109.059 148.584L256.702 54.7285L255.629 53.0407ZM454.236 125.037L256.508 52.9451L255.823 54.8241L453.551 126.916L454.236 125.037ZM320.383 221.946L454.473 126.792L453.315 125.161L319.226 220.315L320.383 221.946ZM435.479 127.556L435.475 127.559L436.64 129.185L436.643 129.182L435.479 127.556Z" fill="black" mask="url(#path-1-inside-1_2301_2399)"/>
</svg>
