<svg width="184" height="153" viewBox="0 0 184 153" fill="none" xmlns="http://www.w3.org/2000/svg">
<path d="M156.242 0.565866C156.521 0.608637 156.805 0.644839 157.088 0.676822C165.328 11.8327 173.556 22.9975 181.788 34.1573C182.26 34.9036 182.965 35.5457 183.296 36.3536C154.935 74.0819 126.639 111.87 98.3031 149.622C97.6154 150.492 97.0146 151.433 96.2693 152.254C95.9386 152.283 95.7271 151.907 95.5193 151.697C87.7717 141.262 80.015 130.836 72.2703 120.401C71.859 120.824 71.3454 121.13 70.84 121.438C58.1712 129.517 45.4994 137.595 32.8307 145.674C30.8774 146.86 29.0377 148.231 26.9781 149.248C26.7209 149.022 26.4686 148.789 26.272 148.51C17.6803 136.824 9.03198 125.177 0.452353 113.482C0.678569 113.177 0.900608 112.874 1.11969 112.571C1.79892 112.285 2.42401 111.899 3.02702 111.489C24.8007 97.6023 46.5823 83.7265 68.3508 69.8358C68.4841 69.6868 68.833 69.6405 68.7867 69.942C69.0134 85.0221 69.2376 100.105 69.4519 115.184C69.4564 115.447 69.5683 115.695 69.6607 115.944C76.5188 106.93 83.2642 97.8274 90.0777 88.7805C112.129 59.3735 134.204 29.9832 156.242 0.565866ZM156.56 2.18849C129.92 37.7016 103.28 73.2147 76.6394 108.728C74.7409 111.305 72.7506 113.819 70.9101 116.437C79.3963 127.723 87.7365 139.118 96.2161 150.41C124.697 112.471 153.155 74.5149 181.624 36.5673C181.9 36.3204 181.521 36.0356 181.401 35.8152C173.102 24.62 164.882 13.3691 156.56 2.18849ZM67.0966 72.3061C52.6211 81.5471 38.1314 90.775 23.6503 100.009C16.5042 104.538 9.40931 109.149 2.23035 113.625C4.01533 116.268 6.00706 118.778 7.87546 121.371C14.3192 130.104 20.7599 138.837 27.2066 147.569C28.0689 147.153 28.8362 146.581 29.649 146.085C43.2643 137.4 56.8875 128.726 70.5006 120.036C69.8253 119.104 69.1422 118.178 68.4361 117.268C68.0696 116.855 68.0942 116.296 68.0686 115.797C67.8616 101.37 67.6407 86.9415 67.4367 72.515C67.431 72.254 67.3171 72.184 67.0966 72.3061Z" fill="#5947D2"/>
<path d="M156.523 4.10342C164.472 14.8741 172.44 25.6306 180.351 36.4283C152.306 73.7809 124.291 111.152 96.2582 148.514C88.2748 137.792 80.3019 127.06 72.3414 116.322C100.391 78.9094 128.452 41.5025 156.523 4.10342Z" fill="#5947D2"/>
<path d="M88.2215 12.9406C103.583 12.9961 118.944 13.0174 134.306 13.0968C130.7 17.9581 127.037 22.7768 123.427 27.6355C114.843 27.6187 106.257 27.5842 97.6726 27.5586C89.2242 38.785 80.8347 50.0582 72.3554 61.2614C65.6563 65.6096 58.871 69.8471 52.141 74.1542C45.8961 78.1476 39.607 82.0745 33.3964 86.1116C35.2394 83.4542 37.2632 80.9246 39.1792 78.3168C55.5267 56.5247 71.8724 34.7314 88.2215 12.9406ZM126.642 14.3496C114.037 14.3062 101.432 14.2748 88.8263 14.2285C78.6064 27.8451 68.3933 41.4669 58.175 55.0848C51.743 63.6914 45.249 72.2515 38.8564 80.8878C39.0006 80.8137 39.2878 80.6672 39.4307 80.5947C50.1243 73.7784 60.8322 66.9857 71.5302 60.1778C72.4374 59.4517 72.9659 58.3749 73.7084 57.4997C81.4277 47.2022 89.1591 36.9137 96.8732 26.6124C97.1445 26.1434 97.7763 26.2606 98.2473 26.2161C106.45 26.2531 114.65 26.2516 122.853 26.3066C125.88 22.3712 128.827 18.3707 131.81 14.4018C130.088 14.3136 128.366 14.3719 126.642 14.3496Z" fill="#5947D2"/>
<path d="M125.944 15.5484C127.136 15.5671 128.326 15.5127 129.52 15.5924C127.186 18.7645 124.783 21.8868 122.449 25.0618C115.412 25.1139 108.365 25.0281 101.325 25.0267C99.732 25.0532 98.1167 24.9118 96.5513 25.198C88.2298 36.2911 79.9048 47.3816 71.5896 58.477C71.2064 59.0057 70.6073 59.3032 70.0671 59.6474C61.213 65.2718 52.3655 70.9088 43.5079 76.5306C49.9365 67.8034 56.5073 59.1802 62.9892 50.493C71.7809 38.8054 80.5111 27.0743 89.3377 15.4155C101.54 15.4936 113.741 15.4957 125.944 15.5484Z" fill="#5947D2"/>
<path d="M77.8175 58.0001C78.4373 58.7884 78.9362 59.6554 79.4718 60.4987C81.6937 64.0161 83.9119 67.5384 86.1339 71.0558C86.496 71.6971 87.0102 72.2932 87.1696 73.0186C87.2205 73.9782 87.1526 74.9385 87.2069 75.9007C84.1521 79.9515 81.1424 84.0387 78.055 88.065C77.8877 87.3107 77.9658 86.5479 77.9426 85.7913C77.8351 76.5449 77.7957 67.3008 77.6459 58.0535L77.8175 58.0001ZM79.1257 62.5029C79.1062 67.2649 79.2064 72.032 79.2368 76.7956C79.293 79.2838 79.2169 81.7729 79.3606 84.2626C81.3184 81.7349 83.1961 79.1496 85.1351 76.6078C85.3719 76.285 85.6387 75.9794 85.8053 75.6142C85.8338 74.8065 85.8473 73.9902 85.7807 73.1805C85.5241 72.4772 85.0599 71.8646 84.6737 71.2232C82.8117 68.3249 81.0393 65.3681 79.1257 62.5029Z" fill="#5947D2"/>
<path d="M80.3962 66.7337C81.7092 68.7171 82.9422 70.7534 84.224 72.757C84.7886 73.5579 84.5931 74.556 84.5664 75.4471C83.2801 77.2799 81.9052 79.0591 80.5357 80.8346C80.4083 77.2098 80.4521 73.5825 80.3894 69.9575C80.3948 68.8835 80.3286 67.8047 80.3962 66.7337Z" fill="#5947D2"/>
<path d="M66.1868 74.3494C66.3465 76.6817 66.2751 79.0178 66.3431 81.3506C66.5056 92.2348 66.6623 103.12 66.8248 114.004C66.8589 115.143 66.7609 116.312 67.1189 117.428C67.6232 118.209 68.2441 118.913 68.7741 119.678C55.0058 128.438 41.271 137.247 27.4843 145.978C19.9267 135.691 12.3299 125.431 4.75778 115.156C4.52197 114.787 4.13144 114.474 4.02971 114.051C4.38435 113.685 4.85796 113.466 5.2766 113.187C25.5798 100.24 45.8875 87.3017 66.1868 74.3494Z" fill="#5947D2"/>
<path d="M154.582 0.429787C155.134 0.438401 155.703 0.356828 156.242 0.565866C134.204 29.9832 112.129 59.3735 90.0777 88.7805C83.2642 97.8274 76.5188 106.93 69.6607 115.944C69.5683 115.695 69.4564 115.447 69.4519 115.184C69.2376 100.105 69.0134 85.0221 68.7867 69.942C68.833 69.6405 68.4841 69.6868 68.3508 69.8358C46.5823 83.7265 24.8007 97.6023 3.02702 111.489C2.42401 111.899 1.79892 112.285 1.11969 112.571C1.1848 112.32 1.28921 112.087 1.43044 111.878C29.3499 74.6701 57.2552 37.4494 85.181 0.244059C108.315 0.305967 131.448 0.367877 154.582 0.429787ZM85.6561 1.39353C58.8292 37.1338 32.0208 72.8852 5.20552 108.632C12.0089 104.395 18.728 100.031 25.4951 95.7387C39.6004 86.7512 53.6983 77.7557 67.8024 68.7698C68.1201 68.5718 68.5122 68.5682 68.8761 68.5127C69.1979 68.7567 69.521 68.999 69.847 69.241C70.1198 71.2757 69.9691 73.3238 70.0519 75.3649C70.2395 87.8874 70.4182 100.411 70.6087 112.933C98.4434 75.8135 126.283 38.6978 154.134 1.59265C131.308 1.51486 108.483 1.47718 85.6561 1.39353Z" fill="black"/>
<path d="M156.56 2.18849C164.882 13.3691 173.102 24.62 181.401 35.8152C181.521 36.0356 181.9 36.3204 181.624 36.5673C153.155 74.5149 124.697 112.471 96.2161 150.41C87.7365 139.118 79.3963 127.723 70.9101 116.437C72.7506 113.819 74.7409 111.305 76.6394 108.728C103.28 73.2147 129.92 37.7016 156.56 2.18849ZM156.523 4.10342C128.452 41.5025 100.391 78.9094 72.3414 116.322C80.3019 127.06 88.2748 137.792 96.2582 148.514C124.291 111.152 152.306 73.7809 180.351 36.4283C172.44 25.6306 164.472 14.8741 156.523 4.10342Z" fill="black"/>
<path d="M134.373 11.9152C134.7 12.1631 135.03 12.4106 135.364 12.6532C135.376 12.9701 135.555 13.3537 135.294 13.6122C116.482 38.6908 97.6704 63.7707 78.8529 88.8484C78.6822 89.1798 78.2681 89.1232 77.9501 89.1927C77.6131 88.9296 77.2699 88.6747 76.9235 88.4277C76.777 87.789 76.743 87.1398 76.7611 86.4963C76.6884 77.7047 76.5764 68.9118 76.5177 60.123C62.8111 68.7294 49.1969 77.4846 35.5214 86.1426C34.8344 86.5178 34.2792 87.2795 33.391 87.1676C33.0137 86.9975 32.7085 86.6992 32.3778 86.4563C32.3446 86.2107 32.3118 85.9679 32.2761 85.7255C50.7497 61.0957 69.2271 36.4713 87.6989 11.8402C88.4569 11.7569 89.2246 11.7681 89.9898 11.7826C104.783 11.8224 119.579 11.877 134.373 11.9152ZM88.2215 12.9406C71.8724 34.7314 55.5267 56.5247 39.1792 78.3168C37.2632 80.9246 35.2394 83.4542 33.3964 86.1116C39.607 82.0745 45.8961 78.1476 52.141 74.1542C58.871 69.8471 65.6563 65.6096 72.3554 61.2614C74.178 60.2852 75.7888 58.9576 77.6459 58.0535C77.7957 67.3008 77.8351 76.5449 77.9426 85.7913C77.9658 86.5479 77.8877 87.3107 78.055 88.065C81.1424 84.0387 84.1521 79.9515 87.2069 75.9007C99.3069 59.8315 111.362 43.7288 123.427 27.6355C127.037 22.7768 130.7 17.9581 134.306 13.0968C118.944 13.0174 103.583 12.9961 88.2215 12.9406Z" fill="black"/>
<path d="M126.642 14.3496C128.366 14.3719 130.088 14.3136 131.81 14.4018C128.827 18.3707 125.88 22.3712 122.853 26.3066C114.65 26.2516 106.45 26.2531 98.2473 26.2161C97.7763 26.2606 97.1445 26.1434 96.8732 26.6124C89.1591 36.9137 81.4277 47.2022 73.7084 57.4997C72.9659 58.3749 72.4374 59.4517 71.5302 60.1778C60.8322 66.9857 50.1243 73.7784 39.4307 80.5947C39.2878 80.6672 39.0006 80.8137 38.8564 80.8878C45.249 72.2515 51.743 63.6914 58.175 55.0848C68.3933 41.4669 78.6064 27.8451 88.8263 14.2285C101.432 14.2748 114.037 14.3062 126.642 14.3496ZM125.944 15.5484C113.741 15.4957 101.54 15.4936 89.3377 15.4155C80.5111 27.0743 71.7809 38.8054 62.9892 50.493C56.5073 59.1802 49.9365 67.8034 43.5079 76.5306C52.3655 70.9088 61.213 65.2718 70.0671 59.6474C70.6073 59.3032 71.2064 59.0057 71.5896 58.477C79.9048 47.3816 88.2298 36.2911 96.5513 25.198C98.1167 24.9118 99.732 25.0532 101.325 25.0267C108.365 25.0281 115.412 25.1139 122.449 25.0618C124.783 21.8868 127.186 18.7645 129.52 15.5924C128.326 15.5127 127.136 15.5671 125.944 15.5484Z" fill="black"/>
<path d="M79.1257 62.5029C81.0393 65.3681 82.8117 68.3249 84.6737 71.2232C85.0599 71.8646 85.5241 72.4772 85.7807 73.1805C85.8473 73.9902 85.8338 74.8065 85.8053 75.6142C85.6387 75.9794 85.3719 76.285 85.1351 76.6078C83.1961 79.1496 81.3184 81.7349 79.3606 84.2626C79.2169 81.7729 79.293 79.2838 79.2368 76.7956C79.2064 72.032 79.1062 67.2649 79.1257 62.5029ZM80.3962 66.7337C80.3286 67.8047 80.3948 68.8835 80.3894 69.9575C80.4521 73.5825 80.4083 77.2098 80.5357 80.8346C81.9052 79.0591 83.2801 77.2799 84.5664 75.4471C84.5931 74.556 84.7886 73.5579 84.224 72.757C82.9422 70.7534 81.7092 68.7171 80.3962 66.7337Z" fill="black"/>
<path d="M67.0966 72.3061C67.3171 72.184 67.431 72.254 67.4367 72.515C67.6407 86.9415 67.8616 101.37 68.0686 115.797C68.0942 116.296 68.0696 116.855 68.4361 117.268C69.1422 118.178 69.8253 119.104 70.5006 120.036C56.8875 128.726 43.2643 137.4 29.649 146.085C28.8362 146.581 28.0689 147.153 27.2066 147.569C20.7599 138.837 14.3192 130.104 7.87546 121.371C6.00706 118.778 4.01533 116.268 2.23035 113.625C9.40931 109.149 16.5042 104.538 23.6503 100.009C38.1314 90.775 52.6211 81.5471 67.0966 72.3061ZM66.1868 74.3494C45.8875 87.3017 25.5798 100.24 5.2766 113.187C4.85796 113.466 4.38435 113.685 4.02971 114.051C4.13144 114.474 4.52197 114.787 4.75778 115.156C12.3299 125.431 19.9267 135.691 27.4843 145.978C41.271 137.247 55.0058 128.438 68.7741 119.678C68.2441 118.913 67.6232 118.209 67.1189 117.428C66.7609 116.312 66.8589 115.143 66.8248 114.004C66.6623 103.12 66.5056 92.2348 66.3431 81.3506C66.2751 79.0178 66.3465 76.6817 66.1868 74.3494Z" fill="black"/>
<path d="M85.6561 1.39353C108.483 1.47718 131.308 1.51486 154.134 1.59265C126.283 38.6978 98.4434 75.8135 70.6087 112.933C70.4182 100.411 70.2395 87.8874 70.0519 75.3649C69.9691 73.3238 70.1198 71.2757 69.847 69.241C69.521 68.999 69.1979 68.7567 68.8761 68.5127C68.5122 68.5682 68.1201 68.5718 67.8024 68.7698C53.6983 77.7557 39.6004 86.7512 25.4951 95.7387C18.728 100.031 12.0089 104.395 5.20552 108.632C32.0208 72.8852 58.8292 37.1338 85.6561 1.39353ZM134.373 11.9152C119.579 11.877 104.783 11.8224 89.9898 11.7826C89.2246 11.7681 88.4569 11.7569 87.6989 11.8402C69.2271 36.4713 50.7497 61.0957 32.2761 85.7255C32.3118 85.9679 32.3446 86.2107 32.3778 86.4563C32.7085 86.6992 33.0137 86.9975 33.391 87.1676C34.2792 87.2795 34.8344 86.5178 35.5214 86.1426C49.1969 77.4846 62.8111 68.7294 76.5177 60.123C76.5764 68.9118 76.6884 77.7047 76.7611 86.4963C76.743 87.1398 76.777 87.789 76.9235 88.4277C77.2699 88.6747 77.6131 88.9296 77.9501 89.1927C78.2681 89.1232 78.6822 89.1798 78.8529 88.8484C97.6704 63.7707 116.482 38.6908 135.294 13.6122C135.555 13.3537 135.376 12.9701 135.364 12.6532C135.03 12.4106 134.7 12.1631 134.373 11.9152Z" fill="#C8BFFF"/>
</svg>
