<svg width="246" height="344" viewBox="0 0 246 344" fill="none" xmlns="http://www.w3.org/2000/svg">
<g clip-path="url(#clip0_139_147)">
<path d="M108.846 9.52216L109.838 9.69422C116.082 11.9821 122.404 14.0643 128.677 16.2714C142.063 20.905 155.448 25.5357 168.833 30.1721C171.497 31.1049 174.14 32.1613 176.889 32.8097C176.861 33.0891 176.809 33.6484 176.781 33.9278C173.449 32.9532 170.213 31.6814 166.911 30.6173C163.084 31.2473 159.21 31.5494 155.338 31.7245C148.124 32.001 140.805 31.6404 133.81 29.7317C125.255 27.3271 117.917 21.7115 112.269 14.974C111.59 14.2314 111.097 13.3141 110.279 12.7016C110.25 12.6611 110.188 12.5763 110.157 12.5353C109.847 11.7089 109.254 11.0465 108.762 10.3277C108.783 10.1241 108.823 9.72246 108.846 9.52216ZM114.835 14.0483C115.135 14.7279 115.753 15.1814 116.232 15.7323C122.114 21.9362 129.674 26.8028 138.148 28.462C144.829 29.7035 151.666 29.5454 158.419 29.192C157.984 28.7819 157.367 28.6987 156.827 28.4984C143.41 23.8594 129.995 19.2117 116.576 14.5692C116.007 14.364 115.439 14.1353 114.835 14.0483Z" fill="#5F45D7"/>
<path d="M125.076 20.0876C125.304 20.1419 125.765 20.2485 125.993 20.3028C132.394 22.5203 138.788 24.766 145.208 26.9333C137.965 27.0005 130.901 24.2803 125.076 20.0876Z" fill="#5F45D7"/>
<path d="M166.852 31.2911C167.887 30.8607 168.915 31.5216 169.899 31.8107C191.782 39.2354 213.645 46.7189 235.54 54.1073C235.622 55.2434 235.408 56.3699 235.237 57.4919C229.696 97.5741 224.149 137.652 218.604 177.734C216.529 192.878 214.375 208.014 212.352 223.158C208.486 234.01 203.726 244.543 198.343 254.726C193.928 263.022 189.019 271.067 183.431 278.627C179.151 284.397 174.447 289.843 169.511 295.059C160.008 305.054 149.63 314.196 138.739 322.647C134.735 325.698 130.741 328.78 126.532 331.543C125.155 331.423 123.805 331.141 122.542 330.567C101.126 323.22 79.7194 315.851 58.2942 308.539C58.2648 308.332 58.2095 307.917 58.1801 307.711C61.0532 305.645 63.9501 303.614 66.7738 301.474C81.8365 290.066 96.054 277.416 108.314 263.005C115.165 254.966 121.1 246.176 126.323 237.001C132.845 225.491 138.47 213.468 143.057 201.06C143.706 199.452 143.78 197.71 144.052 196.022C144.244 195.635 144.556 195.286 144.6 194.847C146.441 181.448 148.311 168.053 150.151 154.657C151.943 142.125 153.546 129.567 155.016 116.991C155.098 115.75 155.489 114.536 155.563 113.309C155.572 112.111 155.759 110.93 155.963 109.755C159.613 83.6045 163.17 57.4385 166.852 31.2911ZM169.122 34.068C167.834 42.862 166.678 51.679 165.436 60.481C159.226 105.388 153.011 150.292 146.802 195.199C146.455 197.214 146.358 199.279 145.811 201.256C144.628 204.639 143.299 207.967 141.931 211.279C136.861 223.361 130.952 235.107 123.956 246.191C118.518 254.861 112.213 262.968 105.269 270.482C92.4969 284.331 78.0593 296.575 62.7906 307.584C83.7717 314.775 104.756 321.985 125.735 329.17C129.423 326.813 132.866 324.071 136.367 321.443C142.493 316.715 148.439 311.757 154.177 306.565C164.015 297.628 173.304 288.016 181.28 277.365C186.878 269.816 191.805 261.784 196.223 253.494C201.549 243.482 206.244 233.12 210.102 222.454C210.65 219.704 210.874 216.889 211.317 214.115C218.118 164.964 224.918 115.816 231.721 66.6662C232.153 63.0317 232.829 59.4218 233.153 55.7803C211.796 48.586 190.489 41.2226 169.122 34.068Z" fill="#5F45D7"/>
<path d="M170.95 37.1441C190.894 43.8744 210.815 50.6746 230.741 57.4609C223.259 111.668 215.742 165.873 208.251 220.081C208.161 220.853 207.945 221.606 207.656 222.329C203.637 233.086 198.845 243.552 193.373 253.648C188.536 262.498 183.147 271.076 176.898 279.009C168.202 290.003 158.209 299.919 147.637 309.107C142.477 313.577 137.165 317.869 131.71 321.976C129.586 323.517 127.552 325.201 125.309 326.571C106.215 319.991 87.116 313.428 67.9955 306.917C68.0691 306.818 68.2201 306.613 68.2942 306.51C81.8281 296.504 94.638 285.463 106.149 273.169C113.275 265.556 119.794 257.362 125.383 248.55C134.441 234.276 141.828 218.961 147.667 203.106C148.363 200.458 148.675 197.724 149.064 195.017C156.077 144.417 163.07 93.8166 170.071 43.2175C170.407 41.1975 170.551 39.1531 170.95 37.1441Z" fill="#5F45D7"/>
<path d="M96.553 64.3962C97.2304 63.5989 97.9666 62.8384 98.4893 61.9255C99.3593 63.604 100.582 65.0623 101.803 66.4938C105.758 70.9632 110.959 74.6243 116.941 75.6382C123.219 76.9667 129.7 76.729 136.028 75.9229C136.386 76.7281 136.124 77.6389 135.881 78.4405C134.213 78.462 132.547 78.5876 130.892 78.7712C125.339 79.1907 119.713 78.7834 114.308 77.4285C107.81 75.7005 102.354 71.2047 98.4326 65.856C94.7532 69.8036 91.044 73.7519 86.8717 77.1936C82.2057 81.0736 77.0662 84.4216 71.4832 86.8253C69.9119 87.5504 68.2588 88.0808 66.6843 88.7905C86.779 95.4907 106.832 102.332 126.912 109.08C128.474 109.572 130.056 110.028 131.569 110.666L131.687 110.719C130.213 111.262 128.66 111.775 127.072 111.781C122.169 142.592 117.168 173.392 112.305 204.214C107.907 212.51 102.593 220.366 96.2361 227.301C87.3176 237.084 77.1528 245.7 66.2854 253.244C66.0265 252.995 65.8023 252.716 65.6243 252.41C60.2478 243.769 55.5362 234.692 51.8503 225.201C47.6724 214.174 44.8647 202.677 42.6854 191.109C42.5586 190.166 42.3012 189.242 42.219 188.299C43.1806 182.157 44.156 176.02 45.2072 169.891C46.3369 162.387 47.5408 154.898 48.7975 147.413C50.667 135.114 52.767 122.852 54.6537 110.556C55.4284 105.85 56.2467 101.149 56.9231 96.4289C57.1559 93.7545 57.8532 91.1519 58.2394 88.4982C58.9338 88.4736 59.6225 88.3799 60.2916 88.194C69.0604 85.9699 77.4964 82.0776 84.4752 76.2717C88.8375 72.6735 92.8198 68.6364 96.553 64.3962ZM60.0234 91.6704C54.9204 123.741 49.7565 155.804 44.6305 187.87C44.5526 188.268 44.6465 188.666 44.7116 189.059C46.4706 198.986 48.7925 208.826 51.9072 218.417C55.46 229.341 60.5831 239.7 66.4677 249.546C66.6255 249.848 66.9184 250.26 67.2615 249.888C76.7528 243.019 85.6907 235.345 93.6363 226.732C100.191 219.65 105.767 211.662 110.194 203.099C115.021 173.233 119.798 143.353 124.553 113.475C123.588 113.027 122.549 112.769 121.554 112.407C101.041 105.504 80.5431 98.5508 60.0234 91.6704Z" fill="#5F45D7"/>
<path d="M98.2617 69.6188C102.156 74.1339 107.124 77.9737 112.992 79.4415C119.32 80.8586 125.86 81.8005 132.34 81.0031C133.459 81.0432 134.544 80.6601 135.661 80.762C135.519 82.6054 135.021 84.4018 134.896 86.2511C134.672 89.3681 133.874 92.4151 133.656 95.5332C133.394 98.3445 132.657 101.091 132.52 103.915C132.286 105.349 132.18 106.811 131.811 108.221C126.092 106.306 120.402 104.303 114.652 102.477C100.983 97.8595 87.3053 93.2523 73.6353 88.6374C76.828 86.9501 80.0623 85.2789 82.9758 83.1168C88.6313 79.3048 93.6675 74.6393 98.2617 69.6188Z" fill="#5F45D7"/>
<path d="M61.7734 94.7833C62.5484 94.9088 63.2757 95.2244 64.0184 95.4687C82.6844 101.764 101.353 108.063 120.019 114.356C120.717 114.619 121.498 114.73 122.088 115.223C117.425 143.984 112.874 172.769 108.229 201.535C107.05 204.099 105.511 206.499 104.059 208.923C95.9978 222.117 84.7586 233.034 72.7912 242.685C71.0452 244.007 69.3994 245.486 67.5355 246.634C62.2129 237.374 57.508 227.713 54.2263 217.531C51.0775 207.778 48.6972 197.779 46.9767 187.682C47.2741 184.584 47.9279 181.514 48.3682 178.429C52.8423 150.548 57.2992 122.664 61.7734 94.7833Z" fill="#5F45D7"/>
<path d="M106.655 10.7174C107.094 10.2993 107.437 9.33143 108.187 9.75748C108.885 10.6512 109.437 11.6529 110.155 12.5352C110.186 12.5762 110.248 12.661 110.277 12.7015C115.531 19.726 122.441 25.7263 130.65 29.0003C135.764 31.0447 141.285 31.7831 146.752 32.0297C152.47 32.2784 158.205 31.9853 163.885 31.3125C164.873 31.2146 165.865 30.91 166.862 31.1391L166.851 31.2911C163.169 57.4385 159.611 83.6045 155.962 109.754C155.758 110.93 155.571 112.111 155.562 113.309C154.532 119.332 153.877 125.415 152.962 131.455C150.011 152.981 146.991 174.494 144.051 196.022C143.779 197.71 143.705 199.452 143.056 201.06C138.469 213.468 132.844 225.491 126.321 237.001C121.098 246.176 115.163 254.966 108.312 263.005C96.0527 277.416 81.8351 290.066 66.7725 301.474C63.9488 303.614 61.0519 305.645 58.1787 307.711C57.7111 308.05 57.0077 307.904 56.7911 307.343C50.2556 296.946 44.4159 286.108 39.3731 274.91C35.2557 265.806 31.8909 256.377 29.0957 246.789C25.4146 234.178 22.4941 221.35 20.2297 208.411C20.0852 207.759 20.1308 207.086 20.2549 206.438C28.5586 154.564 36.8743 102.689 45.1837 50.8156C60.0997 47.4433 74.4963 41.0026 86.2589 31.1329C93.666 24.975 100.405 18.0382 106.655 10.7174ZM107.705 13.2886C103.743 17.9214 99.524 22.3349 95.1097 26.5398C88.8145 32.5205 81.9581 37.9627 74.406 42.2748C65.8721 47.1241 56.6126 50.6574 47.07 52.9368C38.8975 104.123 30.6502 155.297 22.4983 206.484C22.6806 208.934 23.305 211.346 23.7072 213.775C26.1662 226.446 29.1993 239.018 33.0761 251.336C38.9263 270.176 47.7539 287.971 58.0082 304.783C58.595 304.559 59.0656 304.134 59.5765 303.785C62.7739 301.506 65.9119 299.143 69.0085 296.729C83.9085 285.029 97.9585 272.098 109.802 257.272C117.346 247.727 123.684 237.281 129.237 226.473C133.863 217.379 138.067 208.046 141.455 198.42C149.064 143.533 156.609 88.6374 164.258 33.7574C155.416 34.6454 146.406 34.945 137.635 33.255C132.079 32.3921 126.712 30.357 122.014 27.2656C116.363 23.6212 111.635 18.7069 107.705 13.2886Z" fill="#CDC0FF"/>
<path d="M107.604 17.1612C112.64 23.6002 118.973 29.2043 126.535 32.4697C130.303 34.1445 134.368 34.9711 138.42 35.6086C146.056 37.081 153.891 37.0306 161.619 36.4348C154.25 89.7352 146.869 143.031 139.5 196.331C139.357 197.86 138.634 199.242 138.143 200.675C133.26 213.337 127.387 225.628 120.46 237.302C115.156 246.246 109.079 254.74 102.183 262.529C89.4568 276.947 74.8519 289.628 59.3781 301.015C59.1751 301.178 58.9427 301.271 58.6834 301.297C54.1129 293.491 49.7519 285.553 45.9218 277.354C41.3543 267.737 37.5535 257.764 34.5021 247.569C30.7161 235.018 27.7325 222.229 25.3776 209.334C25.2001 207.846 24.5965 206.356 24.9724 204.855C32.2996 159.055 39.644 113.258 46.977 67.4594C47.5878 63.3053 48.3861 59.1807 48.9356 55.0219C61.0468 51.989 72.74 46.9594 82.9063 39.6666C92.1087 33.3198 100.161 25.4591 107.604 17.1612ZM93.86 59.9092C90.2107 64.2291 86.2627 68.3077 81.9908 72.0163C80.3731 73.3847 78.7543 74.7766 76.9368 75.8794C71.8335 79.0353 66.2523 81.3949 60.481 83.0228C59.302 83.3304 58.1283 83.7101 56.9057 83.7911C56.1006 84.1459 55.4578 84.7952 54.7039 85.2477C54.1101 85.5118 54.2281 86.2487 54.0842 86.7714C52.9597 93.1012 52.0697 99.4627 51.0171 105.805C46.5434 133.837 42.0261 161.864 37.561 189.898C37.8731 192.676 38.5261 195.418 39.0539 198.165C40.4523 204.876 42.1115 211.534 44.1453 218.083C47.1187 227.856 51.3458 237.216 56.3002 246.14C58.4531 249.917 60.5515 253.754 63.2051 257.207C64.7574 257.411 66.2872 257.762 67.8401 257.964C75.3583 252.805 82.6055 247.244 89.3518 241.105C97.2642 233.913 104.646 226.021 110.465 217.015C116.561 207.602 121.47 197.44 125.346 186.928C126.325 182.494 126.72 177.96 127.409 173.476C131.943 140.451 136.586 107.445 141.079 74.4163C140.621 73.8128 140.183 73.1951 139.762 72.5655C139.559 72.2668 139.354 71.8818 138.93 71.9001C137.475 71.6775 136.037 71.3303 134.576 71.1954C129.374 71.8622 124.08 72.1932 118.86 71.5278C111.542 69.7583 105.532 64.4321 101.6 58.1669C100.061 57.8674 98.5097 57.6427 96.972 57.3375C95.8839 58.1287 94.6279 58.7605 93.86 59.9092Z" fill="#CDC0FF"/>
<path d="M96.6009 60.5178C97.4637 59.4033 98.9663 59.7231 100.082 60.189C100.812 60.9876 101.225 62.0185 101.923 62.8441C105.579 67.5044 110.415 71.4575 116.161 73.1675C118.648 73.9629 121.274 74.1075 123.865 74.2136C127.523 74.3061 131.187 74.098 134.814 73.5961C135.799 73.4176 136.766 73.8014 137.745 73.8823C138.117 74.314 138.442 74.7818 138.749 75.2644C134.653 104.895 130.54 134.518 126.455 164.151C125.434 171.078 124.627 178.038 123.514 184.95C122.047 189.293 120.209 193.503 118.304 197.67C113.295 208.415 107.189 218.754 99.2639 227.625C89.7791 238.298 78.7724 247.568 67.0033 255.631C66.0211 255.333 64.6105 255.627 64.1294 254.49C59.1348 246.806 54.8538 238.662 51.2233 230.253C46.634 219.48 43.6398 208.102 41.2543 196.664C40.7883 194.158 40.187 191.665 39.9116 189.136C45.3338 155.123 50.8112 121.116 56.2329 87.1056C56.679 86.7537 57.137 86.4187 57.6164 86.114C58.8269 86.1197 59.9741 85.688 61.1366 85.4071C67.7578 83.5417 74.1667 80.7485 79.8324 76.8257C86.1104 72.1565 91.5654 66.4771 96.6009 60.5178ZM96.5503 64.3961C92.8172 68.6363 88.8349 72.6734 84.4725 76.2716C77.4938 82.0775 69.0577 85.9698 60.289 88.1939C59.6198 88.3798 58.9312 88.4735 58.2367 88.4981C57.8505 91.1518 57.1533 93.7545 56.9205 96.4288C56.2441 101.149 55.4257 105.85 54.651 110.556C52.7643 122.852 50.6643 135.114 48.7948 147.413C47.5381 154.898 46.3342 162.387 45.2045 169.891C44.1533 176.02 43.1779 182.157 42.2164 188.298C42.2985 189.242 42.556 190.166 42.6828 191.109C44.862 202.677 47.6698 214.174 51.8476 225.201C55.5335 234.692 60.2451 243.769 65.6217 252.41C65.7996 252.716 66.0238 252.995 66.2827 253.244C77.1502 245.7 87.3149 237.084 96.2335 227.301C102.59 220.366 107.905 212.51 112.303 204.214C115.857 197.607 118.946 190.744 121.488 183.686C124.822 159.714 128.123 135.73 131.447 111.749C131.506 111.493 131.625 110.975 131.685 110.719L131.566 110.666C132.008 107.743 132.499 104.827 132.79 101.884C133.197 99.1986 133.646 96.5204 133.908 93.8185C134.302 91.0153 134.81 88.2229 135.063 85.3981C135.55 82.2468 136 79.092 136.362 75.9251C136.271 75.9034 136.086 75.8594 135.995 75.8377L136.025 75.9228C129.697 76.7289 123.216 76.9666 116.939 75.6381C110.956 74.6242 105.755 70.9631 101.8 66.4937C100.579 65.0622 99.3567 63.6039 98.4866 61.9254C97.9639 62.8383 97.2277 63.5988 96.5503 64.3961Z" fill="#CDC0FF"/>
<path d="M114.834 14.0483C115.438 14.1353 116.005 14.364 116.574 14.5692C129.993 19.2117 143.409 23.8594 156.826 28.4985C157.366 28.6987 157.982 28.7819 158.418 29.192C151.665 29.5454 144.827 29.7035 138.147 28.462C129.672 26.8028 122.112 21.9362 116.23 15.7323C115.751 15.1814 115.134 14.7279 114.834 14.0483ZM125.075 20.0876C130.9 24.2804 137.965 27.0005 145.207 26.9333C138.788 24.7661 132.394 22.5203 125.992 20.3028C125.764 20.2485 125.303 20.1419 125.075 20.0876Z" fill="black"/>
<path d="M107.706 13.2886C111.636 18.7069 116.364 23.6213 122.015 27.2657C126.713 30.3571 132.08 32.3922 137.636 33.255C146.407 34.945 155.417 34.6455 164.259 33.7574C156.61 88.6375 149.065 143.533 141.456 198.42C138.069 208.046 133.864 217.379 129.239 226.473C123.685 237.281 117.347 247.727 109.803 257.272C97.9598 272.098 83.9098 285.029 69.0098 296.729C65.9132 299.143 62.7752 301.506 59.5778 303.785C59.0669 304.134 58.5963 304.559 58.0095 304.783C47.7552 287.971 38.9276 270.176 33.0774 251.336C29.2006 239.018 26.1676 226.446 23.7085 213.775C23.3064 211.346 22.6819 208.934 22.4996 206.484C30.6515 155.297 38.8988 104.123 47.0714 52.9369C56.614 50.6575 65.8735 47.1241 74.4073 42.2748C81.9594 37.9627 88.8158 32.5205 95.111 26.5399C99.5253 22.3349 103.745 17.9215 107.706 13.2886ZM107.606 17.1613C100.162 25.4591 92.1104 33.3199 82.908 39.6667C72.7418 46.9595 61.0485 51.9891 48.9373 55.022C48.3878 59.1808 47.5895 63.3054 46.9787 67.4595C39.6457 113.258 32.3013 159.056 24.9741 204.856C24.5982 206.356 25.2018 207.847 25.3793 209.334C27.7342 222.229 30.7178 235.018 34.5038 247.569C37.5552 257.764 41.356 267.737 45.9235 277.354C49.7536 285.553 54.1146 293.491 58.6851 301.297C58.9444 301.271 59.1768 301.178 59.3798 301.015C74.8536 289.628 89.4585 276.947 102.185 262.529C109.081 254.74 115.157 246.246 120.462 237.302C127.389 225.629 133.262 213.337 138.144 200.675C138.636 199.242 139.358 197.86 139.502 196.331C146.871 143.031 154.251 89.7353 161.62 36.4349C153.892 37.0307 146.057 37.081 138.422 35.6086C134.37 34.9711 130.304 34.1446 126.536 32.4698C118.975 29.2044 112.642 23.6002 107.606 17.1613Z" fill="black"/>
<path d="M169.122 34.068C190.489 41.2227 211.796 48.586 233.152 55.7804C232.829 59.4218 232.152 63.0317 231.721 66.6662C224.917 115.817 218.117 164.964 211.317 214.115C210.874 216.889 210.65 219.704 210.102 222.454C206.243 233.121 201.549 243.482 196.223 253.494C191.805 261.784 186.878 269.816 181.279 277.366C173.303 288.016 164.014 297.628 154.176 306.565C148.438 311.757 142.492 316.715 136.367 321.443C132.866 324.071 129.422 326.814 125.735 329.17C104.755 321.985 83.7713 314.775 62.7902 307.584C78.059 296.575 92.4965 284.331 105.269 270.482C112.212 262.968 118.518 254.861 123.955 246.191C130.952 235.107 136.861 223.361 141.93 211.279C143.298 207.967 144.628 204.639 145.81 201.256C146.358 199.279 146.455 197.214 146.801 195.199C153.011 150.292 159.226 105.388 165.436 60.4811C166.678 51.6791 167.834 42.8621 169.122 34.068ZM170.949 37.1441C170.551 39.1531 170.406 41.1975 170.071 43.2175C163.07 93.8166 156.077 144.417 149.064 195.017C148.674 197.724 148.363 200.458 147.667 203.106C141.827 218.961 134.44 234.276 125.383 248.55C119.793 257.362 113.274 265.556 106.148 273.169C94.6374 285.463 81.8275 296.504 68.2935 306.51C68.2194 306.613 68.0684 306.818 67.9948 306.917C87.1153 313.428 106.215 319.991 125.308 326.571C127.551 325.201 129.585 323.517 131.71 321.976C137.165 317.869 142.477 313.577 147.636 309.107C158.208 299.919 168.201 290.003 176.897 279.009C183.146 271.076 188.535 262.499 193.373 253.648C198.844 243.552 203.637 233.086 207.656 222.329C207.944 221.606 208.16 220.853 208.25 220.081C215.741 165.873 223.258 111.668 230.74 57.4609C210.814 50.6746 190.894 43.8744 170.949 37.1441Z" fill="black"/>
<path d="M93.8608 59.9093C94.6288 58.7606 95.8847 58.1288 96.9728 57.3376C98.5106 57.6428 100.062 57.8675 101.601 58.1669C105.532 64.4321 111.543 69.7584 118.861 71.5278C124.081 72.1933 129.375 71.8623 134.577 71.1954C136.038 71.3303 137.476 71.6775 138.931 71.9002C139.354 71.8819 139.56 72.2669 139.763 72.5656C140.184 73.1952 140.622 73.8129 141.08 74.4163C136.587 107.445 131.944 140.451 127.41 173.476C126.721 177.96 126.326 182.495 125.346 186.928C121.47 197.44 116.562 207.602 110.466 217.016C104.647 226.022 97.265 233.913 89.3526 241.105C82.6064 247.244 75.3591 252.805 67.8409 257.964C66.288 257.763 64.7582 257.411 63.2059 257.207C60.5523 253.754 58.4539 249.918 56.301 246.14C51.3466 237.216 47.1196 227.856 44.1461 218.083C42.1123 211.535 40.4531 204.876 39.0547 198.165C38.527 195.418 37.8739 192.676 37.5618 189.898C42.0269 161.864 46.5442 133.837 51.0179 105.805C52.0705 99.4627 52.9605 93.1012 54.085 86.7714C54.229 86.2487 54.1109 85.5118 54.7047 85.2477C55.4586 84.7953 56.1014 84.1459 56.9065 83.7912C58.1291 83.7101 59.3028 83.3305 60.4818 83.0228C66.2531 81.3949 71.8344 79.0354 76.9376 75.8795C78.7551 74.7766 80.3739 73.3848 81.9916 72.0164C86.2635 68.3077 90.2116 64.2291 93.8608 59.9093ZM96.6019 60.5179C91.5664 66.4772 86.1115 72.1566 79.8334 76.8258C74.1677 80.7486 67.7588 83.5418 61.1376 85.4072C59.9751 85.6881 58.828 86.1198 57.6174 86.1141C57.138 86.4187 56.68 86.7538 56.2339 87.1057C50.8122 121.116 45.3348 155.123 39.9126 189.136C40.188 191.665 40.7893 194.158 41.2553 196.664C43.6408 208.102 46.635 219.48 51.2243 230.253C54.8548 238.662 59.1358 246.806 64.1304 254.49C64.6115 255.627 66.0221 255.333 67.0043 255.631C78.7734 247.568 89.7801 238.299 99.2649 227.625C107.19 218.754 113.296 208.415 118.305 197.67C120.21 193.503 122.048 189.293 123.515 184.95C124.628 178.038 125.435 171.079 126.456 164.151C130.541 134.518 134.654 104.895 138.75 75.2644C138.443 74.7819 138.118 74.3141 137.746 73.8824C136.767 73.8015 135.8 73.4177 134.815 73.5962C131.188 74.098 127.524 74.3062 123.866 74.2136C121.275 74.1076 118.649 73.963 116.162 73.1676C110.416 71.4575 105.58 67.5045 101.924 62.8442C101.226 62.0186 100.813 60.9877 100.083 60.1891C98.9673 59.7232 97.4647 59.4034 96.6019 60.5179Z" fill="black"/>
<path d="M86.8695 77.1935C91.0418 73.7518 94.751 69.8035 98.4304 65.8559C102.352 71.2047 107.808 75.7004 114.306 77.4285C119.711 78.7833 125.337 79.1906 130.89 78.7712C132.545 78.5875 134.211 78.462 135.879 78.4405C136.122 77.6389 136.384 76.728 136.026 75.9229L135.996 75.8378C136.087 75.8595 136.272 75.9034 136.363 75.9251C136 79.092 135.551 82.2469 135.064 85.3981C134.811 88.2229 134.303 91.0153 133.908 93.8185C133.647 96.5205 133.197 99.1986 132.791 101.884C132.5 104.827 132.009 107.744 131.567 110.666C130.054 110.028 128.471 109.572 126.91 109.08C106.829 102.332 86.7768 95.4907 66.6821 88.7905C68.2567 88.0807 69.9097 87.5503 71.4811 86.8252C77.064 84.4216 82.2035 81.0736 86.8695 77.1935ZM98.2607 69.6188C93.6665 74.6393 88.6302 79.3048 82.9748 83.1168C80.0612 85.2789 76.8269 86.9501 73.6343 88.6374C87.3043 93.2523 100.982 97.8595 114.651 102.477C120.401 104.303 126.091 106.306 131.81 108.221C132.179 106.811 132.285 105.349 132.518 103.915C132.656 101.091 133.393 98.3444 133.655 95.5331C133.873 92.4151 134.671 89.3681 134.895 86.2511C135.02 84.4018 135.518 82.6054 135.66 80.762C134.543 80.66 133.458 81.0431 132.339 81.0031C125.859 81.8005 119.319 80.8586 112.991 79.4415C107.123 77.9737 102.155 74.1339 98.2607 69.6188Z" fill="black"/>
<path d="M60.0215 91.6704C80.5411 98.5508 101.039 105.505 121.552 112.407C122.547 112.769 123.586 113.027 124.551 113.475C119.796 143.353 115.019 173.233 110.192 203.099C105.766 211.662 100.189 219.65 93.6344 226.732C85.6888 235.345 76.7508 243.02 67.2596 249.888C66.9165 250.26 66.6236 249.848 66.4658 249.546C60.5812 239.7 55.4581 229.341 51.9053 218.417C48.7905 208.826 46.4686 198.986 44.7096 189.06C44.6445 188.666 44.5507 188.268 44.6286 187.87C49.7546 155.804 54.9185 123.741 60.0215 91.6704ZM61.7714 94.7833C57.2972 122.664 52.8403 150.548 48.3662 178.429C47.9258 181.515 47.2721 184.584 46.9747 187.682C48.6951 197.779 51.0755 207.778 54.2242 217.531C57.506 227.713 62.2109 237.375 67.5335 246.634C69.3974 245.486 71.0432 244.007 72.7892 242.685C84.7566 233.034 95.9957 222.117 104.057 208.924C105.509 206.499 107.048 204.099 108.227 201.535C112.872 172.769 117.423 143.984 122.086 115.224C121.496 114.73 120.715 114.619 120.017 114.356C101.351 108.063 82.6824 101.764 64.0163 95.4687C63.2737 95.2245 62.5464 94.9089 61.7714 94.7833Z" fill="black"/>
</g>
<defs>
<clipPath id="clip0_139_147">
<rect width="194.381" height="314.44" fill="white" transform="translate(53.9414) rotate(9.83924)"/>
</clipPath>
</defs>
</svg>
