<svg width="562" height="345" viewBox="0 0 562 345" fill="none" xmlns="http://www.w3.org/2000/svg">
<mask id="path-1-inside-1_2301_2401" fill="white">
<path d="M255.171 53.9298L110.715 147.794L320.157 218.212L451.244 123.211L255.171 53.9298ZM318.914 210.039L189.974 166.687L262.22 119.788L386.415 161.12L318.914 210.039ZM261.234 111.751L181.168 163.716L127.432 145.647L256.186 61.9912L435.707 125.426L393.746 155.837L261.234 111.751Z"/>
<path d="M240.45 0L1.74439 154.503L0.5625 224.368L339.931 344.322L560.222 180.464L561.465 108.417L240.45 0ZM7.96409 219.199L8.93664 161.567L335.046 271.625L335.605 335.012L7.96409 219.199ZM338.035 264.917L13.7476 155.456L241.455 8.0601L549.819 112.224L338.035 264.917ZM552.937 176.728L342.845 332.961L342.3 270.862L553.908 118.232L552.937 176.728Z"/>
<path d="M335.605 335.012L7.96409 219.199L8.93664 161.567L335.044 271.636L335.605 335.012Z"/>
<path d="M553.957 118.259L552.968 176.731L342.896 332.967L342.351 270.868L553.957 118.259Z"/>
<path d="M435.66 125.462L393.699 155.874L261.187 111.788L181.121 163.752L127.385 145.683L256.139 62.0277L435.66 125.462Z"/>
<path fill-rule="evenodd" clip-rule="evenodd" d="M7.43562 219.567L8.41452 161.558L8.93664 161.567L9.27026 160.576L336.083 270.872L336.649 335.002L335.605 335.012L335.431 335.504L7.43562 219.567ZM334.553 334.085L334.007 272.389L9.43743 162.839L8.49255 218.831L334.553 334.085ZM335.044 271.636L335.042 271.635L9.45595 161.742L335.046 271.625L335.046 271.632L335.046 271.636L335.6 334.455L335.044 271.636ZM319.091 211.202L187.59 166.988L262.073 118.638L388.677 160.771L319.091 211.202ZM261.087 110.601L393.567 154.676L433.432 125.784L256.276 63.185L129.821 145.347L181.023 162.564L261.087 110.601ZM434.51 125.003L256.186 61.9912L127.432 145.647L127.438 145.649L256.139 62.0277L434.46 125.039L434.463 125.039L435.658 125.462L435.659 125.461L435.661 125.459L435.707 125.426L434.512 125.004L434.51 125.003ZM437.883 125.139L437.933 125.104L256.048 60.8339L125.049 145.948L125.056 145.95L125.003 145.985L181.266 164.904L261.334 112.939L393.878 157.035L437.886 125.14L437.883 125.139ZM338.209 266.08L11.363 155.754L241.311 6.90805L552.078 111.884L338.209 266.08ZM341.869 334.989L341.87 335.033L554.004 177.264L555.036 116.192L554.985 116.228L554.987 116.165L341.251 270.33L341.818 335.027L341.869 334.989ZM110.715 147.794L320.157 218.212L451.244 123.211L255.171 53.9298L110.715 147.794ZM113.098 147.492L255.308 55.0871L449.018 123.533L319.98 217.05L113.098 147.492ZM262.22 119.788L386.415 161.12L318.914 210.039L189.974 166.687L262.22 119.788ZM1.74439 154.503L0.5625 224.368L339.931 344.322L560.222 180.464L561.465 108.417L240.45 0L1.74439 154.503ZM240.594 1.15203L560.407 109.163L559.187 179.932L339.754 343.151L1.61947 223.633L2.77919 155.079L240.594 1.15203ZM241.455 8.0601L549.819 112.224L338.035 264.917L13.7476 155.456L241.455 8.0601ZM342.3 270.862L342.3 270.868L342.845 332.961L342.896 332.923L342.351 270.868L553.907 118.295L553.907 118.258L553.908 118.232L342.3 270.862ZM343.922 330.858L343.4 271.4L552.828 120.362L551.902 176.196L343.922 330.858Z"/>
<path d="M241.455 8.0601L13.7476 155.456L338.096 264.925L549.87 112.231L241.455 8.0601ZM320.157 218.212L110.715 147.794L255.171 53.9298L451.244 123.211L320.157 218.212Z"/>
<path fill-rule="evenodd" clip-rule="evenodd" d="M320.334 219.375L108.331 148.096L255.033 52.7725L453.469 122.888L320.334 219.375ZM13.7476 155.456L338.096 264.925L549.87 112.231L241.455 8.0601L13.7476 155.456ZM16.1316 155.157L241.598 9.21205L547.61 112.571L337.921 263.762L16.1316 155.157ZM320.157 218.212L110.715 147.794L255.171 53.9298L451.244 123.211L320.157 218.212Z"/>
</mask>
<path d="M255.171 53.9298L110.715 147.794L320.157 218.212L451.244 123.211L255.171 53.9298ZM318.914 210.039L189.974 166.687L262.22 119.788L386.415 161.12L318.914 210.039ZM261.234 111.751L181.168 163.716L127.432 145.647L256.186 61.9912L435.707 125.426L393.746 155.837L261.234 111.751Z" fill="#5947D2"/>
<path d="M240.45 0L1.74439 154.503L0.5625 224.368L339.931 344.322L560.222 180.464L561.465 108.417L240.45 0ZM7.96409 219.199L8.93664 161.567L335.046 271.625L335.605 335.012L7.96409 219.199ZM338.035 264.917L13.7476 155.456L241.455 8.0601L549.819 112.224L338.035 264.917ZM552.937 176.728L342.845 332.961L342.3 270.862L553.908 118.232L552.937 176.728Z" fill="#5947D2"/>
<path d="M335.605 335.012L7.96409 219.199L8.93664 161.567L335.044 271.636L335.605 335.012Z" fill="#5947D2"/>
<path d="M553.957 118.259L552.968 176.731L342.896 332.967L342.351 270.868L553.957 118.259Z" fill="#5947D2"/>
<path d="M435.66 125.462L393.699 155.874L261.187 111.788L181.121 163.752L127.385 145.683L256.139 62.0277L435.66 125.462Z" fill="#5947D2"/>
<path fill-rule="evenodd" clip-rule="evenodd" d="M7.43562 219.567L8.41452 161.558L8.93664 161.567L9.27026 160.576L336.083 270.872L336.649 335.002L335.605 335.012L335.431 335.504L7.43562 219.567ZM334.553 334.085L334.007 272.389L9.43743 162.839L8.49255 218.831L334.553 334.085ZM335.044 271.636L335.042 271.635L9.45595 161.742L335.046 271.625L335.046 271.632L335.046 271.636L335.6 334.455L335.044 271.636ZM319.091 211.202L187.59 166.988L262.073 118.638L388.677 160.771L319.091 211.202ZM261.087 110.601L393.567 154.676L433.432 125.784L256.276 63.185L129.821 145.347L181.023 162.564L261.087 110.601ZM434.51 125.003L256.186 61.9912L127.432 145.647L127.438 145.649L256.139 62.0277L434.46 125.039L434.463 125.039L435.658 125.462L435.659 125.461L435.661 125.459L435.707 125.426L434.512 125.004L434.51 125.003ZM437.883 125.139L437.933 125.104L256.048 60.8339L125.049 145.948L125.056 145.95L125.003 145.985L181.266 164.904L261.334 112.939L393.878 157.035L437.886 125.14L437.883 125.139ZM338.209 266.08L11.363 155.754L241.311 6.90805L552.078 111.884L338.209 266.08ZM341.869 334.989L341.87 335.033L554.004 177.264L555.036 116.192L554.985 116.228L554.987 116.165L341.251 270.33L341.818 335.027L341.869 334.989ZM110.715 147.794L320.157 218.212L451.244 123.211L255.171 53.9298L110.715 147.794ZM113.098 147.492L255.308 55.0871L449.018 123.533L319.98 217.05L113.098 147.492ZM262.22 119.788L386.415 161.12L318.914 210.039L189.974 166.687L262.22 119.788ZM1.74439 154.503L0.5625 224.368L339.931 344.322L560.222 180.464L561.465 108.417L240.45 0L1.74439 154.503ZM240.594 1.15203L560.407 109.163L559.187 179.932L339.754 343.151L1.61947 223.633L2.77919 155.079L240.594 1.15203ZM241.455 8.0601L549.819 112.224L338.035 264.917L13.7476 155.456L241.455 8.0601ZM342.3 270.862L342.3 270.868L342.845 332.961L342.896 332.923L342.351 270.868L553.907 118.295L553.907 118.258L553.908 118.232L342.3 270.862ZM343.922 330.858L343.4 271.4L552.828 120.362L551.902 176.196L343.922 330.858Z" fill="#5947D2"/>
<path d="M241.455 8.0601L13.7476 155.456L338.096 264.925L549.87 112.231L241.455 8.0601ZM320.157 218.212L110.715 147.794L255.171 53.9298L451.244 123.211L320.157 218.212Z" fill="#C8BFFF"/>
<path fill-rule="evenodd" clip-rule="evenodd" d="M320.334 219.375L108.331 148.096L255.033 52.7725L453.469 122.888L320.334 219.375ZM13.7476 155.456L338.096 264.925L549.87 112.231L241.455 8.0601L13.7476 155.456ZM16.1316 155.157L241.598 9.21205L547.61 112.571L337.921 263.762L16.1316 155.157ZM320.157 218.212L110.715 147.794L255.171 53.9298L451.244 123.211L320.157 218.212Z" fill="#C8BFFF"/>
<path d="M255.171 53.9298L255.338 53.4584L255.105 53.3763L254.899 53.5106L255.171 53.9298ZM110.715 147.794L110.442 147.375L109.575 147.939L110.555 148.268L110.715 147.794ZM320.157 218.212L319.998 218.686L320.242 218.768L320.451 218.617L320.157 218.212ZM451.244 123.211L451.537 123.616L452.309 123.057L451.411 122.739L451.244 123.211ZM318.914 210.039L318.755 210.513L318.999 210.595L319.207 210.444L318.914 210.039ZM189.974 166.687L189.702 166.267L188.834 166.831L189.815 167.161L189.974 166.687ZM262.22 119.788L262.377 119.314L262.149 119.238L261.947 119.369L262.22 119.788ZM386.415 161.12L386.708 161.525L387.497 160.953L386.573 160.645L386.415 161.12ZM240.45 0L240.61 -0.473713L240.381 -0.55101L240.179 -0.419748L240.45 0ZM1.74439 154.503L1.47271 154.084L1.24897 154.228L1.24446 154.495L1.74439 154.503ZM0.5625 224.368L0.0625715 224.359L0.0564829 224.719L0.395871 224.839L0.5625 224.368ZM339.931 344.322L339.764 344.794L340.016 344.882L340.229 344.723L339.931 344.322ZM560.222 180.464L560.52 180.865L560.718 180.719L560.722 180.473L560.222 180.464ZM561.465 108.417L561.965 108.425L561.971 108.06L561.625 107.943L561.465 108.417ZM7.96409 219.199L7.46416 219.191L7.45808 219.55L7.79745 219.67L7.96409 219.199ZM338.035 264.917L337.875 265.391L338.118 265.473L338.327 265.323L338.035 264.917ZM13.7476 155.456L13.4759 155.036L12.607 155.599L13.5877 155.93L13.7476 155.456ZM241.455 8.0601L241.615 7.58639L241.386 7.50908L241.183 7.64036L241.455 8.0601ZM549.819 112.224L550.111 112.63L550.899 112.062L549.979 111.751L549.819 112.224ZM338.096 264.925L337.936 265.398L338.18 265.481L338.389 265.33L338.096 264.925ZM549.87 112.231L550.162 112.636L550.95 112.068L550.03 111.757L549.87 112.231ZM254.899 53.5106L110.442 147.375L110.987 148.213L255.444 54.3491L254.899 53.5106ZM110.555 148.268L319.998 218.686L320.316 217.739L110.874 147.32L110.555 148.268ZM320.451 218.617L451.537 123.616L450.951 122.806L319.864 217.808L320.451 218.617ZM451.411 122.739L255.338 53.4584L255.005 54.4013L451.077 123.682L451.411 122.739ZM319.073 209.566L190.134 166.213L189.815 167.161L318.755 210.513L319.073 209.566ZM190.247 167.106L262.492 120.208L261.947 119.369L189.702 166.267L190.247 167.106ZM262.062 120.263L386.257 161.594L386.573 160.645L262.377 119.314L262.062 120.263ZM386.122 160.715L318.621 209.635L319.207 210.444L386.708 161.525L386.122 160.715ZM127.705 146.066L256.458 62.4105L255.913 61.5719L127.16 145.227L127.705 146.066ZM240.179 -0.419748L1.47271 154.084L2.01607 154.923L240.722 0.419748L240.179 -0.419748ZM1.24446 154.495L0.0625715 224.359L1.06243 224.376L2.24432 154.512L1.24446 154.495ZM0.395871 224.839L339.764 344.794L340.098 343.851L0.729129 223.896L0.395871 224.839ZM340.229 344.723L560.52 180.865L559.923 180.063L339.633 343.921L340.229 344.723ZM560.722 180.473L561.965 108.425L560.965 108.408L559.722 180.456L560.722 180.473ZM561.625 107.943L240.61 -0.473713L240.29 0.473713L561.305 108.89L561.625 107.943ZM8.46402 219.207L9.43657 161.575L8.43671 161.558L7.46416 219.191L8.46402 219.207ZM335.772 334.54L8.13072 218.728L7.79745 219.67L335.438 335.483L335.772 334.54ZM338.194 264.444L13.9075 154.982L13.5877 155.93L337.875 265.391L338.194 264.444ZM14.0193 155.876L241.726 8.47984L241.183 7.64036L13.4759 155.036L14.0193 155.876ZM241.295 8.53381L549.659 112.698L549.979 111.751L241.615 7.5864L241.295 8.53381ZM549.526 111.819L337.742 264.512L338.327 265.323L550.111 112.63L549.526 111.819ZM342.592 271.267L554.2 118.637L553.615 117.826L342.007 270.456L342.592 271.267ZM13.5877 155.93L337.936 265.398L338.256 264.451L13.9075 154.982L13.5877 155.93ZM338.389 265.33L550.162 112.636L549.577 111.825L337.804 264.519L338.389 265.33ZM550.03 111.757L241.615 7.58639L241.295 8.53381L549.71 112.704L550.03 111.757ZM261.234 111.751L261.549 110.802L261.093 110.651L260.689 110.913L261.234 111.751ZM181.168 163.716L180.849 164.664L181.307 164.818L181.712 164.555L181.168 163.716ZM127.432 145.647L127.751 144.699L127.113 146.594L127.432 145.647ZM435.707 125.426L436.294 126.236L437.836 125.118L436.04 124.483L435.707 125.426ZM393.746 155.837L393.43 156.786L393.917 156.948L394.333 156.647L393.746 155.837ZM335.046 271.625L336.046 271.616L336.039 270.905L335.365 270.678L335.046 271.625ZM552.937 176.728L553.534 177.53L553.929 177.237L553.937 176.744L552.937 176.728ZM342.845 332.961L341.845 332.97L341.862 334.938L343.441 333.764L342.845 332.961ZM342.3 270.862L343.3 270.847L341.3 270.87L342.3 270.862ZM553.908 118.232L554.908 118.247L552.908 118.215L553.908 118.232ZM335.044 271.636L336.044 271.627L336.038 270.916L335.364 270.688L335.044 271.636ZM553.957 118.259L554.957 118.276L554.991 116.28L553.372 117.448L553.957 118.259ZM552.968 176.731L553.565 177.534L553.96 177.24L553.968 176.748L552.968 176.731ZM342.896 332.967L341.896 332.976L341.913 334.945L343.493 333.77L342.896 332.967ZM342.351 270.868L341.766 270.057L341.347 270.359L341.351 270.877L342.351 270.868ZM435.66 125.462L436.247 126.272L437.789 125.154L435.993 124.52L435.66 125.462ZM393.699 155.874L393.383 156.823L393.87 156.985L394.286 156.683L393.699 155.874ZM261.187 111.788L261.502 110.839L261.046 110.687L260.642 110.949L261.187 111.788ZM181.121 163.752L180.802 164.7L181.26 164.854L181.665 164.591L181.121 163.752ZM127.385 145.683L126.841 144.845L125.106 145.972L127.067 146.631L127.385 145.683ZM256.139 62.0277L256.472 61.0848L256.007 60.9206L255.594 61.1892L256.139 62.0277ZM7.43562 219.567L6.43576 219.55L6.42361 220.269L7.10235 220.509L7.43562 219.567ZM8.41452 161.558L8.43142 160.558L7.43154 160.541L7.41467 161.541L8.41452 161.558ZM9.27026 160.576L9.59003 159.628L8.64187 159.308L8.32254 160.257L9.27026 160.576ZM336.083 270.872L337.083 270.863L337.077 270.152L336.403 269.925L336.083 270.872ZM336.649 335.002L336.658 336.002L337.658 335.993L337.649 334.993L336.649 335.002ZM335.431 335.504L335.098 336.447L336.041 336.781L336.374 335.837L335.431 335.504ZM334.553 334.085L334.219 335.028L335.565 335.504L335.552 334.076L334.553 334.085ZM334.007 272.389L335.007 272.38L335 271.669L334.326 271.441L334.007 272.389ZM9.43743 162.839L9.75723 161.892L8.46066 161.454L8.43758 162.822L9.43743 162.839ZM8.49255 218.831L7.4927 218.814L7.48055 219.534L8.15929 219.774L8.49255 218.831ZM335.042 271.635L334.723 272.583L334.73 272.585L335.042 271.635ZM9.45595 161.742L9.77572 160.795L9.13615 162.69L9.45595 161.742ZM335.046 271.632L336.046 271.624L336.046 271.622L335.046 271.632ZM335.046 271.636L334.046 271.644L334.046 271.645L335.046 271.636ZM335.6 334.455L334.6 334.464L336.6 334.447L335.6 334.455ZM319.091 211.202L318.772 212.15L319.261 212.314L319.678 212.012L319.091 211.202ZM187.59 166.988L187.046 166.149L185.31 167.276L187.272 167.936L187.59 166.988ZM262.073 118.638L262.388 117.689L261.932 117.537L261.528 117.799L262.073 118.638ZM388.677 160.771L389.264 161.581L390.842 160.437L388.993 159.822L388.677 160.771ZM261.087 110.601L261.402 109.652L260.946 109.5L260.542 109.762L261.087 110.601ZM393.567 154.676L393.252 155.625L393.739 155.787L394.154 155.486L393.567 154.676ZM433.432 125.784L434.019 126.594L435.561 125.476L433.765 124.841L433.432 125.784ZM256.276 63.185L256.609 62.2421L256.144 62.0779L255.731 62.3465L256.276 63.185ZM129.821 145.347L129.276 144.508L127.542 145.636L129.503 146.295L129.821 145.347ZM181.023 162.564L180.704 163.512L181.162 163.666L181.567 163.403L181.023 162.564ZM434.51 125.003L434.846 124.061L434.843 124.06L434.51 125.003ZM127.438 145.649L127.119 146.596L127.578 146.751L127.983 146.487L127.438 145.649ZM434.46 125.039L434.8 124.098L434.794 124.096L434.46 125.039ZM434.463 125.039L434.123 125.98L434.129 125.982L434.463 125.039ZM435.658 125.462L435.324 126.405L435.818 126.579L436.243 126.272L435.658 125.462ZM435.659 125.461L436.244 126.272L436.247 126.27L435.659 125.461ZM435.661 125.459L435.074 124.649L435.073 124.65L435.661 125.459ZM434.512 125.004L434.175 125.945L434.179 125.947L434.512 125.004ZM437.883 125.139L437.296 124.33L435.753 125.449L437.551 126.082L437.883 125.139ZM437.933 125.104L438.52 125.913L440.062 124.795L438.266 124.161L437.933 125.104ZM256.048 60.8339L256.382 59.891L255.917 59.7268L255.504 59.9954L256.048 60.8339ZM125.049 145.948L124.505 145.11L122.771 146.236L124.73 146.896L125.049 145.948ZM125.056 145.95L125.6 146.789L127.334 145.663L125.375 145.003L125.056 145.95ZM125.003 145.985L124.458 145.146L122.723 146.273L124.684 146.933L125.003 145.985ZM181.266 164.904L180.947 165.852L181.405 166.006L181.81 165.743L181.266 164.904ZM261.334 112.939L261.649 111.99L261.193 111.838L260.789 112.1L261.334 112.939ZM393.878 157.035L393.562 157.984L394.049 158.146L394.465 157.845L393.878 157.035ZM437.886 125.14L438.472 125.95L440.016 124.831L438.218 124.197L437.886 125.14ZM338.209 266.08L337.89 267.027L338.377 267.192L338.794 266.891L338.209 266.08ZM11.363 155.754L10.8196 154.915L9.08176 156.04L11.0432 156.702L11.363 155.754ZM241.311 6.90805L241.631 5.96064L241.173 5.806L240.767 6.06857L241.311 6.90805ZM552.078 111.884L552.663 112.695L554.239 111.559L552.398 110.937L552.078 111.884ZM341.869 334.989L342.869 334.98L342.851 333.013L341.273 334.187L341.869 334.989ZM341.87 335.033L340.87 335.043L340.888 337.01L342.467 335.836L341.87 335.033ZM554.004 177.264L554.6 178.066L554.995 177.773L555.003 177.281L554.004 177.264ZM555.036 116.192L556.036 116.209L556.07 114.214L554.452 115.38L555.036 116.192ZM554.985 116.228L553.986 116.211L553.951 118.206L555.57 117.04L554.985 116.228ZM554.987 116.165L555.986 116.182L556.021 114.186L554.402 115.354L554.987 116.165ZM341.251 270.33L340.666 269.519L340.246 269.821L340.251 270.338L341.251 270.33ZM341.818 335.027L340.818 335.036L340.836 337.004L342.415 335.829L341.818 335.027ZM113.098 147.492L112.553 146.654L110.818 147.781L112.779 148.44L113.098 147.492ZM255.308 55.0871L255.642 54.1443L255.177 53.9801L254.764 54.2486L255.308 55.0871ZM449.018 123.533L449.605 124.343L451.147 123.225L449.351 122.59L449.018 123.533ZM319.98 217.05L319.661 217.998L320.15 218.162L320.567 217.86L319.98 217.05ZM240.594 1.15203L240.914 0.204603L240.456 0.0500082L240.051 0.312533L240.594 1.15203ZM560.407 109.163L561.407 109.18L561.42 108.449L560.727 108.216L560.407 109.163ZM559.187 179.932L559.783 180.734L560.178 180.441L560.186 179.949L559.187 179.932ZM339.754 343.151L339.421 344.094L339.924 344.271L340.351 343.953L339.754 343.151ZM1.61947 223.633L0.619612 223.616L0.607434 224.335L1.28621 224.575L1.61947 223.633ZM2.77919 155.079L2.23582 154.239L1.78835 154.529L1.77933 155.062L2.77919 155.079ZM342.3 270.868L343.3 270.859L343.3 270.854L342.3 270.868ZM342.896 332.923L343.493 333.726L343.9 333.422L343.896 332.914L342.896 332.923ZM553.907 118.295L554.492 119.106L554.898 118.813L554.907 118.312L553.907 118.295ZM553.907 118.258L554.907 118.275L554.907 118.273L553.907 118.258ZM343.922 330.858L342.922 330.866L342.939 332.835L344.519 331.66L343.922 330.858ZM343.4 271.4L342.815 270.589L342.396 270.891L342.4 271.409L343.4 271.4ZM552.828 120.362L553.828 120.378L553.861 118.384L552.243 119.551L552.828 120.362ZM551.902 176.196L552.498 176.998L552.893 176.704L552.902 176.212L551.902 176.196ZM320.334 219.375L320.015 220.323L320.503 220.487L320.921 220.185L320.334 219.375ZM108.331 148.096L107.787 147.257L106.052 148.385L108.013 149.044L108.331 148.096ZM255.033 52.7725L255.367 51.8296L254.902 51.6654L254.489 51.934L255.033 52.7725ZM453.469 122.888L454.056 123.698L455.599 122.58L453.803 121.946L453.469 122.888ZM16.1316 155.157L15.5882 154.318L13.8503 155.443L15.8118 156.105L16.1316 155.157ZM241.598 9.21205L241.918 8.26463L241.46 8.11001L241.054 8.37257L241.598 9.21205ZM547.61 112.571L548.195 113.382L549.772 112.245L547.93 111.624L547.61 112.571ZM337.921 263.762L337.601 264.71L338.089 264.874L338.506 264.573L337.921 263.762ZM260.689 110.913L180.623 162.877L181.712 164.555L261.778 112.59L260.689 110.913ZM181.487 162.768L127.751 144.699L127.114 146.595L180.849 164.664L181.487 162.768ZM255.852 62.9341L435.374 126.369L436.04 124.483L256.519 61.0483L255.852 62.9341ZM435.12 124.616L393.159 155.027L394.333 156.647L436.294 126.236L435.12 124.616ZM394.062 154.888L261.549 110.802L260.918 112.7L393.43 156.786L394.062 154.888ZM8.61687 162.514L334.726 272.573L335.365 270.678L9.25641 160.619L8.61687 162.514ZM334.046 271.634L334.605 335.02L336.605 335.003L336.046 271.617L334.046 271.634ZM552.341 175.925L342.248 332.159L343.441 333.764L553.534 177.53L552.341 175.925ZM343.845 332.953L343.3 270.853L341.3 270.87L341.845 332.97L343.845 332.953ZM552.908 118.215L551.937 176.711L553.937 176.744L554.908 118.248L552.908 118.215ZM8.61684 162.514L334.725 272.583L335.364 270.688L9.25644 160.619L8.61684 162.514ZM334.044 271.645L334.605 335.02L336.605 335.003L336.044 271.627L334.044 271.645ZM552.957 118.242L551.968 176.715L553.968 176.748L554.957 118.276L552.957 118.242ZM552.371 175.929L342.299 332.165L343.493 333.77L553.565 177.534L552.371 175.929ZM343.896 332.959L343.351 270.859L341.351 270.877L341.896 332.976L343.896 332.959ZM342.936 271.679L554.542 119.07L553.372 117.448L341.766 270.057L342.936 271.679ZM435.073 124.653L393.112 155.064L394.286 156.683L436.247 126.272L435.073 124.653ZM394.015 154.925L261.502 110.839L260.871 112.737L393.383 156.823L394.015 154.925ZM260.642 110.949L180.576 162.914L181.665 164.591L261.731 112.627L260.642 110.949ZM181.44 162.805L127.704 144.735L127.067 146.631L180.802 164.7L181.44 162.805ZM127.93 146.522L256.683 62.8663L255.594 61.1892L126.841 144.845L127.93 146.522ZM255.805 62.9706L435.327 126.405L435.993 124.52L256.472 61.0848L255.805 62.9706ZM8.95354 160.567L8.43142 160.558L8.39763 162.558L8.91974 162.567L8.95354 160.567ZM8.32254 160.257L7.98892 161.248L9.88436 161.886L10.218 160.895L8.32254 160.257ZM335.614 336.011L336.658 336.002L336.641 334.002L335.596 334.012L335.614 336.011ZM336.374 335.837L336.548 335.344L334.662 334.679L334.488 335.172L336.374 335.837ZM9.11763 163.787L333.687 273.336L334.326 271.441L9.75723 161.892L9.11763 163.787ZM9.49241 218.848L10.4373 162.856L8.43758 162.822L7.4927 218.814L9.49241 218.848ZM334.886 333.142L8.82582 217.889L8.15929 219.774L334.219 335.028L334.886 333.142ZM335.356 270.686L335.354 270.685L334.73 272.585L334.732 272.586L335.356 270.686ZM9.13618 162.69L334.726 272.573L335.365 270.678L9.77572 160.795L9.13618 162.69ZM334.046 271.635L334.046 271.642L336.046 271.622L336.046 271.616L334.046 271.635ZM334.046 271.64L334.046 271.644L336.046 271.627L336.046 271.624L334.046 271.64ZM334.046 271.645L334.6 334.464L336.6 334.447L336.046 271.627L334.046 271.645ZM336.6 334.447L336.044 271.627L334.044 271.645L334.6 334.464L336.6 334.447ZM432.845 124.974L392.98 153.866L394.154 155.486L434.019 126.594L432.845 124.974ZM255.943 64.1279L433.099 126.727L433.765 124.841L256.609 62.2421L255.943 64.1279ZM130.366 146.186L256.821 64.0236L255.731 62.3465L129.276 144.508L130.366 146.186ZM181.341 161.616L130.14 144.399L129.503 146.295L180.704 163.512L181.341 161.616ZM255.852 62.9341L434.176 125.946L434.843 124.06L256.519 61.0483L255.852 62.9341ZM127.758 144.701L127.751 144.699L127.113 146.594L127.119 146.596L127.758 144.701ZM434.802 124.099L434.8 124.098L434.121 125.979L434.123 125.98L434.802 124.099ZM435.991 124.519L434.796 124.097L434.129 125.982L435.324 126.405L435.991 124.519ZM435.073 124.65L435.072 124.651L436.243 126.272L436.244 126.272L435.073 124.65ZM435.073 124.65L435.071 124.652L436.247 126.27L436.249 126.268L435.073 124.65ZM435.12 124.616L435.074 124.649L436.248 126.269L436.294 126.236L435.12 124.616ZM434.173 125.944L434.175 125.945L434.849 124.062L434.846 124.061L434.173 125.944ZM438.47 125.949L438.52 125.913L437.346 124.294L437.296 124.33L438.47 125.949ZM124.73 146.896L124.736 146.898L125.375 145.003L125.369 145.001L124.73 146.896ZM124.511 145.112L124.458 145.146L125.547 146.823L125.6 146.789L124.511 145.112ZM438.218 124.197L438.216 124.196L437.551 126.082L437.553 126.083L438.218 124.197ZM340.869 334.998L340.87 335.043L342.87 335.024L342.869 334.98L340.869 334.998ZM554.452 115.38L554.401 115.417L555.57 117.04L555.621 117.003L554.452 115.38ZM555.985 116.245L555.986 116.182L553.987 116.148L553.986 116.211L555.985 116.245ZM342.415 335.829L342.466 335.791L341.273 334.187L341.222 334.225L342.415 335.829ZM113.642 148.331L255.853 55.9257L254.764 54.2486L112.553 146.654L113.642 148.331ZM254.975 56.03L448.685 124.476L449.351 122.59L255.642 54.1443L254.975 56.03ZM448.431 122.723L319.393 216.24L320.567 217.86L449.605 124.343L448.431 122.723ZM320.299 216.102L113.416 146.545L112.779 148.44L319.661 217.998L320.299 216.102ZM240.274 2.09945L560.087 110.11L560.727 108.216L240.914 0.204603L240.274 2.09945ZM559.407 109.146L558.187 179.914L560.186 179.949L561.407 109.18L559.407 109.146ZM558.59 179.129L339.158 342.349L340.351 343.953L559.783 180.734L558.59 179.129ZM340.088 342.208L1.95273 222.69L1.28621 224.575L339.421 344.094L340.088 342.208ZM2.61933 223.649L3.77904 155.096L1.77933 155.062L0.619612 223.616L2.61933 223.649ZM3.32255 155.918L241.138 1.99152L240.051 0.312533L2.23582 154.239L3.32255 155.918ZM343.3 270.854L343.3 270.847L341.3 270.876L341.3 270.883L343.3 270.854ZM552.908 118.241L552.907 118.278L554.907 118.312L554.907 118.275L552.908 118.241ZM552.908 118.217L552.907 118.243L554.907 118.273L554.908 118.247L552.908 118.217ZM344.922 330.849L344.4 271.391L342.4 271.409L342.922 330.866L344.922 330.849ZM343.985 272.211L553.413 121.173L552.243 119.551L342.815 270.589L343.985 272.211ZM551.828 120.345L550.902 176.179L552.902 176.212L553.828 120.378L551.828 120.345ZM551.305 175.393L343.325 330.055L344.519 331.66L552.498 176.998L551.305 175.393ZM7.41467 161.541L6.43576 219.55L8.43547 219.583L9.41438 161.575L7.41467 161.541ZM336.403 269.925L9.59003 159.628L8.95049 161.523L335.764 271.82L336.403 269.925ZM337.649 334.993L337.083 270.863L335.083 270.881L335.649 335.011L337.649 334.993ZM7.10235 220.509L335.098 336.447L335.765 334.562L7.76888 218.624L7.10235 220.509ZM333.007 272.398L333.553 334.094L335.552 334.076L335.007 272.38L333.007 272.398ZM335.362 270.688L9.77575 160.795L9.13615 162.69L334.723 272.583L335.362 270.688ZM187.272 167.936L318.772 212.15L319.41 210.254L187.909 166.04L187.272 167.936ZM261.528 117.799L187.046 166.149L188.135 167.827L262.617 119.476L261.528 117.799ZM388.993 159.822L262.388 117.689L261.757 119.586L388.362 161.72L388.993 159.822ZM319.678 212.012L389.264 161.581L388.091 159.961L318.504 210.392L319.678 212.012ZM393.883 153.727L261.402 109.652L260.771 111.55L393.252 155.625L393.883 153.727ZM260.542 109.762L180.478 161.725L181.567 163.403L261.631 111.439L260.542 109.762ZM255.594 61.1892L126.894 144.81L127.983 146.487L256.683 62.8663L255.594 61.1892ZM434.794 124.096L256.472 61.0848L255.805 62.9706L434.127 125.981L434.794 124.096ZM434.179 125.947L435.374 126.369L436.04 124.483L434.845 124.061L434.179 125.947ZM438.266 124.161L256.382 59.891L255.715 61.7768L437.599 126.047L438.266 124.161ZM255.504 59.9954L124.505 145.11L125.594 146.787L256.593 61.6724L255.504 59.9954ZM124.684 146.933L180.947 165.852L181.585 163.956L125.321 145.037L124.684 146.933ZM181.81 165.743L261.878 113.777L260.789 112.1L180.722 164.065L181.81 165.743ZM261.018 113.887L393.562 157.984L394.194 156.086L261.649 111.99L261.018 113.887ZM394.465 157.845L438.472 125.95L437.299 124.33L393.291 156.225L394.465 157.845ZM11.0432 156.702L337.89 267.027L338.529 265.132L11.6828 154.807L11.0432 156.702ZM240.767 6.06857L10.8196 154.915L11.9064 156.594L241.854 7.74752L240.767 6.06857ZM552.398 110.937L241.631 5.96064L240.991 7.85545L551.758 112.831L552.398 110.937ZM338.794 266.891L552.663 112.695L551.493 111.073L337.625 265.269L338.794 266.891ZM342.467 335.836L554.6 178.066L553.407 176.461L341.273 334.231L342.467 335.836ZM555.003 177.281L556.036 116.209L554.037 116.175L553.004 177.247L555.003 177.281ZM554.402 115.354L340.666 269.519L341.836 271.141L555.572 116.976L554.402 115.354ZM340.251 270.338L340.818 335.036L342.818 335.018L342.251 270.321L340.251 270.338ZM343.845 332.953L343.3 270.859L341.3 270.877L341.845 332.97L343.845 332.953ZM342.299 332.121L342.248 332.159L343.442 333.764L343.493 333.726L342.299 332.121ZM341.351 270.877L341.896 332.932L343.896 332.914L343.351 270.859L341.351 270.877ZM553.322 117.484L341.766 270.057L342.936 271.679L554.492 119.106L553.322 117.484ZM16.675 155.997L242.141 10.0515L241.054 8.37257L15.5882 154.318L16.675 155.997ZM241.278 10.1595L547.29 113.518L547.93 111.624L241.918 8.26463L241.278 10.1595ZM547.026 111.76L337.336 262.951L338.506 264.573L548.195 113.382L547.026 111.76ZM338.241 262.815L16.4514 154.21L15.8118 156.105L337.601 264.71L338.241 262.815ZM108.013 149.044L320.015 220.323L320.652 218.427L108.65 147.148L108.013 149.044ZM254.489 51.934L107.787 147.257L108.876 148.935L255.578 53.611L254.489 51.934ZM453.803 121.946L255.367 51.8296L254.7 53.7154L453.136 123.831L453.803 121.946ZM320.921 220.185L454.056 123.698L452.883 122.079L319.747 218.565L320.921 220.185Z" fill="black" mask="url(#path-1-inside-1_2301_2401)"/>
</svg>
