<svg width="217" height="379" viewBox="0 0 217 379" fill="none" xmlns="http://www.w3.org/2000/svg">
<g clip-path="url(#clip0_1978_3168)">
<path d="M102.274 3.03351C103.456 1.84582 104.671 0.442537 106.44 0.208026C108.814 0.0832059 111.643 -0.230736 113.4 1.74369C132.512 20.8488 151.605 39.969 170.706 59.0778C172.009 60.432 173.425 61.6839 174.648 63.1137C163.113 74.5972 151.628 86.1298 140.109 97.6322C130.13 87.6655 120.178 77.6723 110.189 67.7131C109.034 66.5708 107.114 67.0285 106.22 68.2654C93.3034 81.1937 80.3525 94.0881 67.4394 107.02C66.595 107.826 66.5193 109.282 67.4016 110.088C80.8372 123.519 94.2729 136.954 107.731 150.367C108.125 150.957 108.852 150.953 109.254 150.367C118.914 140.733 128.547 131.065 138.2 121.42C140.124 119.551 141.922 117.547 143.99 115.833C155.263 104.399 166.669 93.0971 178.007 81.7271C179.037 80.7474 179.938 79.6165 181.15 78.8411C182.752 77.3394 184.248 75.7206 185.842 74.2038C193.378 81.8065 200.982 89.3449 208.521 96.9438C210.911 99.0695 210.801 103.208 208.461 105.333C176.098 137.696 143.748 170.066 111.389 202.432C110.397 203.355 108.947 204.471 107.546 203.771C106.285 203.283 105.387 202.224 104.448 201.301C72.385 169.268 40.3069 137.249 8.25145 105.208C6.49437 103.582 6.13841 100.874 6.99044 98.7064C7.61148 97.4431 8.70587 96.5126 9.67909 95.5254C40.5417 64.6948 71.408 33.8641 102.274 3.03351Z" fill="white"/>
<path d="M206.336 129.677C209.907 126.201 213.289 122.517 216.985 119.173V180.218C216.076 180.626 216.591 181.738 216.985 182.34V183.577C216.701 184.931 216.129 186.258 215.122 187.238C181.824 220.561 148.511 253.877 115.222 287.215C113.968 288.543 112.548 289.992 110.602 290.101C109.064 290.113 107.519 290.188 105.989 290.048C104.209 289.806 102.933 288.448 101.752 287.223C69.064 254.565 36.3686 221.912 3.677 189.254C2.12062 187.677 0.0946705 186.137 0 183.709V119.234C9.30043 128.455 18.5365 137.741 27.8104 146.985C28.6397 147.931 29.6508 148.68 30.6089 149.486C55.8745 174.661 81.0076 199.977 106.311 225.119C107.159 226.129 108.742 227.071 109.852 225.849C114.525 221.45 118.952 216.794 123.526 212.293C144.104 191.732 164.598 171.095 185.191 150.545C186.293 149.236 187.811 148.377 188.936 147.095C194.733 141.289 200.535 135.483 206.336 129.677Z" fill="white"/>
<path d="M175.311 249.217C178.628 245.983 181.782 242.571 185.206 239.451C185.134 239.871 185.02 240.283 184.857 240.68C160.906 286.421 136.893 332.132 112.828 377.816C112.34 378.694 111.192 378.75 110.321 379H106.663C105.694 378.754 104.421 378.633 104.001 377.566C80.341 332.646 56.6544 287.734 33.089 242.76C32.5437 241.679 31.8394 240.65 31.6084 239.439C32.8012 240.309 33.7593 241.44 34.8196 242.462C58.6955 266.283 82.4919 290.181 106.391 313.976C107.11 314.653 108.034 315.712 109.132 315.171C110.548 314.226 111.628 312.868 112.87 311.714C133.697 290.896 154.491 270.043 175.311 249.217Z" fill="white"/>
</g>
<defs>
<clipPath id="clip0_1978_3168">
<rect width="216.985" height="379" fill="white"/>
</clipPath>
</defs>
</svg>
