<svg width="140" height="145" viewBox="0 0 140 145" fill="none" xmlns="http://www.w3.org/2000/svg">
<path d="M0.23555 82.3455V41.1729L34.5461 61.517L0.23555 82.3455Z" fill="#0F775E"/>
<path d="M34.5459 61.7595V20.5869L71.1437 40.931L34.5459 61.7595Z" fill="#47C3F1"/>
<path d="M71.1438 82.3455V41.1729L34.5461 61.517L71.1438 82.3455Z" fill="#EDE73B"/>
<path d="M34.5459 61.7595V20.5869L0.235352 40.931L34.5459 61.7595Z" fill="#EDE73B"/>
<path d="M71.1438 41.1729V0L34.5459 20.3441L71.1438 41.1729Z" fill="#FF0000"/>
<path d="M139.765 82.3455V41.1729L105.454 61.517L139.765 82.3455Z" fill="#EDE73B"/>
<path d="M105.454 61.7595V20.5869L71.1437 40.931L105.454 61.7595Z" fill="#FFF2ED"/>
<path d="M71.1438 82.3455V41.1729L105.454 61.517L71.1438 82.3455Z" fill="#FF0000"/>
<path d="M105.454 61.7595V20.5869L139.765 40.931L105.454 61.7595Z" fill="#FF0000"/>
<path d="M71.1438 41.1729V0L105.454 20.3441L71.1438 41.1729Z" fill="#0F775E"/>
<path d="M34.5459 82.3455V123.518L71.1437 103.174L34.5459 82.3455Z" fill="#47C3F1"/>
<path d="M34.5459 82.3455V123.518L0.235352 103.174L34.5459 82.3455Z" fill="#0F775E"/>
<path d="M71.1438 100.645V144.104L34.5459 122.63L71.1438 100.645Z" fill="#EDE73B"/>
<path d="M105.454 82.3455V123.518L71.1437 103.174L105.454 82.3455Z" fill="#47C3F1"/>
<path d="M105.454 82.3455V123.518L139.765 103.174L105.454 82.3455Z" fill="#0F775E"/>
<path d="M71.1438 100.645V144.104L105.454 122.63L71.1438 100.645Z" fill="#FF0000"/>
</svg>
